<svg width="1200" height="480" viewBox="0 0 1200 480" fill="none" xmlns="http://www.w3.org/2000/svg">
<g clip-path="url(#clip0_3824_386)">
<rect width="1200" height="480" fill="#161618"/>
<g filter="url(#filter0_f_3824_386)">
<circle cx="825.974" cy="334.874" r="374.026" fill="#AB4ABA" fill-opacity="0.1"/>
</g>
<g filter="url(#filter1_f_3824_386)">
<ellipse cx="331.139" cy="436.265" rx="331.139" ry="224.18" fill="#F5D90A" fill-opacity="0.1"/>
</g>
<g filter="url(#filter2_f_3824_386)">
<circle cx="498.961" cy="145.026" r="374.026" fill="#E93D82" fill-opacity="0.1"/>
</g>
<path fill-rule="evenodd" clip-rule="evenodd" d="M244.923 154.5C244.923 150.56 244.147 146.659 242.639 143.019C241.211 139.571 239.153 136.421 236.571 133.731H244.923V124.5H235.692V132.852C233.002 130.27 229.852 128.212 226.404 126.784C223.476 125.571 220.38 124.832 217.231 124.589V133.731H208V154.5H217.231V133.859C219.166 134.076 221.065 134.564 222.871 135.312C225.391 136.355 227.681 137.885 229.609 139.814C231.538 141.743 233.068 144.032 234.111 146.552C235.155 149.072 235.692 151.773 235.692 154.5H244.923Z" fill="#FE4974"/>
<path d="M275.829 131.907C277.321 131.907 278.653 132.217 279.824 132.837C281.017 133.457 281.947 134.375 282.613 135.592C283.278 136.808 283.611 138.278 283.611 139.999V151.19H279.72V140.585C279.72 138.886 279.296 137.589 278.446 136.694C277.597 135.775 276.438 135.316 274.968 135.316C273.499 135.316 272.329 135.775 271.456 136.694C270.607 137.589 270.182 138.886 270.182 140.585V151.19H266.257V132.217H270.182V134.387C270.825 133.606 271.64 132.998 272.627 132.562C273.637 132.126 274.704 131.907 275.829 131.907Z" fill="white"/>
<path d="M287.31 141.618C287.31 139.712 287.7 138.025 288.481 136.556C289.284 135.087 290.363 133.951 291.717 133.147C293.095 132.321 294.61 131.907 296.262 131.907C297.755 131.907 299.052 132.206 300.153 132.803C301.278 133.377 302.174 134.1 302.839 134.972V132.217H306.799V151.19H302.839V148.367C302.174 149.262 301.267 150.008 300.119 150.605C298.971 151.202 297.663 151.5 296.194 151.5C294.564 151.5 293.072 151.087 291.717 150.26C290.363 149.411 289.284 148.24 288.481 146.748C287.7 145.233 287.31 143.523 287.31 141.618ZM302.839 141.687C302.839 140.378 302.564 139.242 302.013 138.278C301.485 137.313 300.785 136.579 299.912 136.074C299.04 135.569 298.099 135.316 297.089 135.316C296.079 135.316 295.138 135.569 294.265 136.074C293.393 136.556 292.681 137.279 292.13 138.243C291.603 139.184 291.339 140.309 291.339 141.618C291.339 142.926 291.603 144.074 292.13 145.061C292.681 146.048 293.393 146.806 294.265 147.334C295.161 147.839 296.102 148.091 297.089 148.091C298.099 148.091 299.04 147.839 299.912 147.334C300.785 146.829 301.485 146.094 302.013 145.13C302.564 144.143 302.839 142.995 302.839 141.687Z" fill="white"/>
<path d="M316.535 135.42V145.922C316.535 146.633 316.695 147.15 317.017 147.471C317.361 147.77 317.935 147.919 318.738 147.919H321.149V151.19H318.05C316.282 151.19 314.928 150.777 313.986 149.951C313.045 149.124 312.575 147.781 312.575 145.922V135.42H310.337V132.217H312.575V127.5H316.535V132.217H321.149V135.42H316.535Z" fill="white"/>
<path d="M329.346 135.42V145.922C329.346 146.633 329.507 147.15 329.828 147.471C330.173 147.77 330.746 147.919 331.55 147.919H333.96V151.19H330.861C329.094 151.19 327.739 150.777 326.798 149.951C325.857 149.124 325.386 147.781 325.386 145.922V135.42H323.148V132.217H325.386V127.5H329.346V132.217H333.96V135.42H329.346Z" fill="white"/>
<circle cx="359.96" cy="139.5" r="2" fill="white" fill-opacity="0.25"/>
<path d="M413.96 149.5C419.483 149.5 423.96 145.023 423.96 139.5C423.96 133.977 419.483 129.5 413.96 129.5C408.437 129.5 403.96 133.977 403.96 139.5C403.96 145.023 408.437 149.5 413.96 149.5Z" stroke="white" stroke-width="1.5" stroke-linecap="round" stroke-linejoin="round"/>
<path d="M413.96 129.5C411.392 132.196 409.96 135.777 409.96 139.5C409.96 143.223 411.392 146.804 413.96 149.5C416.528 146.804 417.96 143.223 417.96 139.5C417.96 135.777 416.528 132.196 413.96 129.5Z" stroke="white" stroke-width="1.5" stroke-linecap="round" stroke-linejoin="round"/>
<path d="M403.96 139.5H423.96" stroke="white" stroke-width="1.5" stroke-linecap="round" stroke-linejoin="round"/>
<path d="M437.96 146.7V135.7H439.76V137.8H440.14L439.76 138.22C439.76 137.353 440.02 136.687 440.54 136.22C441.06 135.74 441.78 135.5 442.7 135.5C443.807 135.5 444.687 135.84 445.34 136.52C445.993 137.2 446.32 138.127 446.32 139.3V146.7H444.52V139.5C444.52 138.713 444.307 138.113 443.88 137.7C443.467 137.273 442.9 137.06 442.18 137.06C441.433 137.06 440.84 137.287 440.4 137.74C439.973 138.193 439.76 138.847 439.76 139.7V146.7H437.96Z" fill="white"/>
<path d="M453.152 146.9C451.992 146.9 451.079 146.607 450.412 146.02C449.745 145.42 449.412 144.613 449.412 143.6C449.412 142.573 449.745 141.767 450.412 141.18C451.079 140.593 451.979 140.3 453.112 140.3H456.512V139.2C456.512 138.533 456.305 138.013 455.892 137.64C455.492 137.267 454.932 137.08 454.212 137.08C453.572 137.08 453.032 137.22 452.592 137.5C452.152 137.78 451.879 138.147 451.772 138.6H449.972C450.039 137.987 450.259 137.447 450.632 136.98C451.019 136.513 451.519 136.153 452.132 135.9C452.759 135.633 453.452 135.5 454.212 135.5C455.479 135.5 456.479 135.827 457.212 136.48C457.945 137.133 458.312 138.02 458.312 139.14V146.7H456.552V144.6H456.252L456.552 144.3C456.552 145.1 456.239 145.733 455.612 146.2C454.999 146.667 454.179 146.9 453.152 146.9ZM453.592 145.48C454.445 145.48 455.145 145.267 455.692 144.84C456.239 144.413 456.512 143.867 456.512 143.2V141.64H453.152C452.552 141.64 452.079 141.807 451.732 142.14C451.385 142.473 451.212 142.927 451.212 143.5C451.212 144.113 451.419 144.6 451.832 144.96C452.259 145.307 452.845 145.48 453.592 145.48Z" fill="white"/>
<path d="M467.304 146.7C466.398 146.7 465.671 146.44 465.124 145.92C464.578 145.387 464.304 144.68 464.304 143.8V137.34H461.204V135.7H464.304V132.6H466.104V135.7H470.504V137.34H466.104V143.8C466.104 144.173 466.211 144.48 466.424 144.72C466.651 144.947 466.944 145.06 467.304 145.06H470.304V146.7H467.304Z" fill="white"/>
<path d="M479.297 146.7C478.39 146.7 477.663 146.44 477.117 145.92C476.57 145.387 476.297 144.68 476.297 143.8V137.34H473.197V135.7H476.297V132.6H478.097V135.7H482.497V137.34H478.097V143.8C478.097 144.173 478.203 144.48 478.417 144.72C478.643 144.947 478.937 145.06 479.297 145.06H482.297V146.7H479.297Z" fill="white"/>
<path d="M490.089 146.9C489.582 146.9 489.175 146.753 488.869 146.46C488.575 146.167 488.429 145.773 488.429 145.28C488.429 144.76 488.575 144.347 488.869 144.04C489.175 143.733 489.582 143.58 490.089 143.58C490.595 143.58 490.995 143.733 491.289 144.04C491.595 144.347 491.749 144.76 491.749 145.28C491.749 145.773 491.595 146.167 491.289 146.46C490.995 146.753 490.595 146.9 490.089 146.9Z" fill="white"/>
<path d="M501.741 146.86C500.994 146.86 500.328 146.747 499.741 146.52C499.154 146.28 498.694 145.94 498.361 145.5C498.041 145.06 497.881 144.54 497.881 143.94H499.721C499.721 144.353 499.914 144.68 500.301 144.92C500.701 145.147 501.194 145.26 501.781 145.26H502.621C503.328 145.26 503.854 145.12 504.201 144.84C504.548 144.547 504.721 144.16 504.721 143.68C504.721 143.213 504.554 142.847 504.221 142.58C503.901 142.3 503.434 142.113 502.821 142.02L501.341 141.78C500.248 141.593 499.441 141.247 498.921 140.74C498.401 140.233 498.141 139.533 498.141 138.64C498.141 137.64 498.461 136.873 499.101 136.34C499.754 135.807 500.688 135.54 501.901 135.54H502.661C503.781 135.54 504.674 135.793 505.341 136.3C506.021 136.793 506.361 137.453 506.361 138.28H504.521C504.521 137.933 504.348 137.66 504.001 137.46C503.668 137.247 503.208 137.14 502.621 137.14H501.861C501.234 137.14 500.748 137.273 500.401 137.54C500.068 137.793 499.901 138.16 499.901 138.64C499.901 139.44 500.468 139.933 501.601 140.12L503.081 140.36C504.268 140.547 505.128 140.893 505.661 141.4C506.208 141.907 506.481 142.64 506.481 143.6C506.481 144.613 506.154 145.413 505.501 146C504.861 146.573 503.888 146.86 502.581 146.86H501.741Z" fill="white"/>
<path d="M509.913 146.7V132.1H511.713V137.8H512.093L511.713 138.22C511.713 137.353 511.973 136.687 512.493 136.22C513.013 135.74 513.733 135.5 514.653 135.5C515.76 135.5 516.64 135.84 517.293 136.52C517.946 137.2 518.273 138.127 518.273 139.3V146.7H516.473V139.5C516.473 138.713 516.26 138.107 515.833 137.68C515.42 137.24 514.853 137.02 514.133 137.02C513.386 137.02 512.793 137.253 512.353 137.72C511.926 138.187 511.713 138.847 511.713 139.7V146.7H509.913Z" fill="white"/>
<rect x="386.46" y="116" width="147.313" height="47" rx="23.5" stroke="white" stroke-opacity="0.75"/>
<path d="M230.272 275.268C224.427 275.268 219.84 273.305 216.512 269.38C213.184 265.412 211.52 259.673 211.52 252.164C211.52 248.409 211.947 245.103 212.8 242.244C213.653 239.385 214.891 236.975 216.512 235.012C218.133 233.049 220.096 231.577 222.4 230.596C224.747 229.572 227.371 229.06 230.272 229.06C234.155 229.06 237.397 229.913 240 231.62C242.645 233.327 244.715 235.844 246.208 239.172L240.128 242.5C239.36 240.367 238.165 238.681 236.544 237.444C234.965 236.164 232.875 235.524 230.272 235.524C226.816 235.524 224.107 236.697 222.144 239.044C220.181 241.391 219.2 244.633 219.2 248.772V255.556C219.2 259.695 220.181 262.937 222.144 265.284C224.107 267.631 226.816 268.804 230.272 268.804C232.96 268.804 235.136 268.121 236.8 266.756C238.507 265.348 239.765 263.556 240.576 261.38L246.4 264.9C244.907 268.143 242.816 270.681 240.128 272.516C237.44 274.351 234.155 275.268 230.272 275.268ZM253.555 274.5V241.22H260.531V247.62H260.851C261.32 245.913 262.301 244.42 263.795 243.14C265.288 241.86 267.357 241.22 270.003 241.22H271.859V247.94H269.107C266.333 247.94 264.2 248.388 262.707 249.284C261.256 250.18 260.531 251.503 260.531 253.252V274.5H253.555ZM301.939 274.5C300.104 274.5 298.696 273.988 297.715 272.964C296.733 271.897 296.136 270.553 295.923 268.932H295.603C294.963 271.023 293.789 272.601 292.083 273.668C290.376 274.735 288.307 275.268 285.875 275.268C282.419 275.268 279.752 274.372 277.875 272.58C276.04 270.788 275.123 268.377 275.123 265.348C275.123 262.02 276.317 259.524 278.707 257.86C281.139 256.196 284.68 255.364 289.331 255.364H295.347V252.548C295.347 250.5 294.792 248.921 293.683 247.812C292.573 246.703 290.845 246.148 288.499 246.148C286.536 246.148 284.936 246.575 283.699 247.428C282.461 248.281 281.416 249.369 280.562 250.692L276.403 246.916C277.512 245.039 279.069 243.503 281.075 242.308C283.08 241.071 285.704 240.452 288.947 240.452C293.256 240.452 296.563 241.455 298.867 243.46C301.171 245.465 302.323 248.345 302.323 252.1V268.804H305.843V274.5H301.939ZM287.859 269.956C290.035 269.956 291.827 269.487 293.235 268.548C294.643 267.567 295.347 266.265 295.347 264.644V259.844H289.458C284.637 259.844 282.227 261.337 282.227 264.324V265.476C282.227 266.969 282.717 268.1 283.699 268.868C284.723 269.593 286.109 269.956 287.859 269.956ZM314.408 246.916H309.352V241.22H314.408V235.716C314.408 233.028 315.112 230.937 316.52 229.444C317.928 227.908 320.04 227.14 322.856 227.14H328.36V232.836H321.384V241.22H328.36V246.916H321.384V274.5H314.408V246.916ZM343.646 274.5C341.214 274.5 339.379 273.881 338.142 272.644C336.904 271.364 336.286 269.572 336.286 267.268V246.916H331.102V241.22H333.918C335.07 241.22 335.859 240.964 336.286 240.452C336.755 239.94 336.99 239.108 336.99 237.956V232.132H343.262V241.22H350.238V246.916H343.262V268.804H349.726V274.5H343.646ZM361.325 235.268C359.874 235.268 358.807 234.927 358.125 234.244C357.485 233.561 357.165 232.687 357.165 231.62V230.532C357.165 229.465 357.485 228.591 358.125 227.908C358.807 227.225 359.874 226.884 361.325 226.884C362.775 226.884 363.821 227.225 364.461 227.908C365.101 228.591 365.421 229.465 365.421 230.532V231.62C365.421 232.687 365.101 233.561 364.461 234.244C363.821 234.927 362.775 235.268 361.325 235.268ZM357.805 241.22H364.781V274.5H357.805V241.22ZM374.742 274.5V241.22H381.718V246.724H382.038C382.763 244.932 383.851 243.439 385.302 242.244C386.795 241.049 388.822 240.452 391.382 240.452C394.795 240.452 397.441 241.583 399.318 243.844C401.238 246.063 402.198 249.241 402.198 253.38V274.5H395.222V254.276C395.222 249.071 393.131 246.468 388.95 246.468C388.054 246.468 387.158 246.596 386.262 246.852C385.409 247.065 384.641 247.407 383.958 247.876C383.275 248.345 382.721 248.943 382.294 249.668C381.91 250.393 381.718 251.247 381.718 252.228V274.5H374.742ZM441.051 277.636C441.051 281.092 439.728 283.695 437.083 285.444C434.438 287.193 430.128 288.068 424.155 288.068C421.424 288.068 419.099 287.876 417.179 287.492C415.302 287.151 413.744 286.639 412.507 285.956C411.312 285.273 410.438 284.441 409.883 283.46C409.328 282.479 409.051 281.348 409.051 280.068C409.051 278.233 409.542 276.804 410.523 275.78C411.547 274.756 412.955 274.052 414.747 273.668V272.964C412.23 272.153 410.971 270.447 410.971 267.844C410.971 266.137 411.547 264.836 412.699 263.94C413.851 263.001 415.238 262.34 416.859 261.956V261.7C414.896 260.761 413.382 259.46 412.315 257.796C411.291 256.089 410.779 254.105 410.779 251.844C410.779 248.431 411.91 245.679 414.171 243.588C416.475 241.497 419.76 240.452 424.027 240.452C426.374 240.452 428.379 240.793 430.043 241.476V240.58C430.043 239.087 430.384 237.935 431.067 237.124C431.792 236.271 432.902 235.844 434.395 235.844H439.515V241.476H432.731V242.82C434.224 243.801 435.376 245.081 436.187 246.66C436.998 248.196 437.403 249.924 437.403 251.844C437.403 255.215 436.251 257.945 433.947 260.036C431.643 262.084 428.358 263.108 424.091 263.108C422.47 263.108 421.019 262.937 419.739 262.596C418.886 262.895 418.139 263.321 417.499 263.876C416.859 264.388 416.539 265.071 416.539 265.924C416.539 266.82 416.944 267.46 417.755 267.844C418.566 268.228 419.718 268.42 421.211 268.42H429.403C433.499 268.42 436.464 269.252 438.299 270.916C440.134 272.537 441.051 274.777 441.051 277.636ZM434.523 278.404C434.523 277.252 434.075 276.335 433.179 275.652C432.326 274.969 430.747 274.628 428.443 274.628H417.179C415.643 275.524 414.875 276.804 414.875 278.468C414.875 279.833 415.408 280.921 416.475 281.732C417.584 282.585 419.44 283.012 422.043 283.012H426.395C431.814 283.012 434.523 281.476 434.523 278.404ZM424.091 258.052C426.139 258.052 427.718 257.604 428.827 256.708C429.979 255.769 430.555 254.34 430.555 252.42V251.14C430.555 249.22 429.979 247.812 428.827 246.916C427.718 245.977 426.139 245.508 424.091 245.508C422.043 245.508 420.443 245.977 419.291 246.916C418.182 247.812 417.627 249.22 417.627 251.14V252.42C417.627 254.34 418.182 255.769 419.291 256.708C420.443 257.604 422.043 258.052 424.091 258.052ZM461.367 274.5V241.22H468.343V247.62H468.663C469.132 245.913 470.114 244.42 471.607 243.14C473.1 241.86 475.17 241.22 477.815 241.22H479.671V247.94H476.919C474.146 247.94 472.012 248.388 470.519 249.284C469.068 250.18 468.343 251.503 468.343 253.252V274.5H461.367ZM498.611 275.268C496.221 275.268 494.088 274.863 492.211 274.052C490.333 273.241 488.733 272.089 487.411 270.596C486.088 269.06 485.064 267.225 484.339 265.092C483.656 262.916 483.315 260.505 483.315 257.86C483.315 255.215 483.656 252.825 484.339 250.692C485.064 248.516 486.088 246.681 487.411 245.188C488.733 243.652 490.333 242.479 492.211 241.668C494.088 240.857 496.221 240.452 498.611 240.452C501.043 240.452 503.176 240.879 505.011 241.732C506.888 242.585 508.445 243.78 509.683 245.316C510.92 246.809 511.837 248.559 512.435 250.564C513.075 252.569 513.395 254.724 513.395 257.028V259.652H490.547V260.74C490.547 263.3 491.293 265.412 492.787 267.076C494.323 268.697 496.499 269.508 499.315 269.508C501.363 269.508 503.091 269.06 504.499 268.164C505.907 267.268 507.101 266.052 508.083 264.516L512.179 268.548C510.941 270.596 509.149 272.239 506.803 273.476C504.456 274.671 501.725 275.268 498.611 275.268ZM498.611 245.892C497.416 245.892 496.307 246.105 495.283 246.532C494.301 246.959 493.448 247.556 492.723 248.324C492.04 249.092 491.507 250.009 491.123 251.076C490.739 252.143 490.547 253.316 490.547 254.596V255.044H506.035V254.404C506.035 251.844 505.373 249.796 504.051 248.26C502.728 246.681 500.915 245.892 498.611 245.892ZM522.845 246.916H517.789V241.22H522.845V235.716C522.845 233.028 523.549 230.937 524.957 229.444C526.365 227.908 528.477 227.14 531.293 227.14H536.797V232.836H529.821V241.22H549.597V274.5H542.621V246.916H529.821V274.5H522.845V246.916ZM546.141 235.268C544.69 235.268 543.624 234.927 542.941 234.244C542.301 233.561 541.981 232.687 541.981 231.62V230.532C541.981 229.465 542.301 228.591 542.941 227.908C543.624 227.225 544.69 226.884 546.141 226.884C547.592 226.884 548.637 227.225 549.277 227.908C549.917 228.591 550.237 229.465 550.237 230.532V231.62C550.237 232.687 549.917 233.561 549.277 234.244C548.637 234.927 547.592 235.268 546.141 235.268ZM559.555 274.5V241.22H566.531V246.724H566.851C567.576 244.932 568.664 243.439 570.115 242.244C571.608 241.049 573.635 240.452 576.195 240.452C579.608 240.452 582.253 241.583 584.131 243.844C586.051 246.063 587.011 249.241 587.011 253.38V274.5H580.035V254.276C580.035 249.071 577.944 246.468 573.763 246.468C572.867 246.468 571.971 246.596 571.075 246.852C570.221 247.065 569.453 247.407 568.771 247.876C568.088 248.345 567.533 248.943 567.107 249.668C566.723 250.393 566.531 251.247 566.531 252.228V274.5H559.555ZM609.736 275.268C607.346 275.268 605.213 274.863 603.336 274.052C601.458 273.241 599.858 272.089 598.536 270.596C597.213 269.06 596.189 267.225 595.464 265.092C594.781 262.916 594.44 260.505 594.44 257.86C594.44 255.215 594.781 252.825 595.464 250.692C596.189 248.516 597.213 246.681 598.536 245.188C599.858 243.652 601.458 242.479 603.336 241.668C605.213 240.857 607.346 240.452 609.736 240.452C612.168 240.452 614.301 240.879 616.136 241.732C618.013 242.585 619.57 243.78 620.808 245.316C622.045 246.809 622.962 248.559 623.56 250.564C624.2 252.569 624.52 254.724 624.52 257.028V259.652H601.672V260.74C601.672 263.3 602.418 265.412 603.912 267.076C605.448 268.697 607.624 269.508 610.44 269.508C612.488 269.508 614.216 269.06 615.624 268.164C617.032 267.268 618.226 266.052 619.208 264.516L623.304 268.548C622.066 270.596 620.274 272.239 617.928 273.476C615.581 274.671 612.85 275.268 609.736 275.268ZM609.736 245.892C608.541 245.892 607.432 246.105 606.408 246.532C605.426 246.959 604.573 247.556 603.848 248.324C603.165 249.092 602.632 250.009 602.248 251.076C601.864 252.143 601.672 253.316 601.672 254.596V255.044H617.16V254.404C617.16 251.844 616.498 249.796 615.176 248.26C613.853 246.681 612.04 245.892 609.736 245.892ZM653.17 268.996H652.85C652.125 270.959 650.93 272.495 649.266 273.604C647.645 274.713 645.725 275.268 643.506 275.268C639.282 275.268 636.018 273.753 633.714 270.724C631.41 267.652 630.258 263.364 630.258 257.86C630.258 252.356 631.41 248.089 633.714 245.06C636.018 241.988 639.282 240.452 643.506 240.452C645.725 240.452 647.645 241.007 649.266 242.116C650.93 243.183 652.125 244.719 652.85 246.724H653.17V227.14H660.146V274.5H653.17V268.996ZM645.618 269.252C647.751 269.252 649.543 268.74 650.994 267.716C652.445 266.649 653.17 265.263 653.17 263.556V252.164C653.17 250.457 652.445 249.092 650.994 248.068C649.543 247.001 647.751 246.468 645.618 246.468C643.186 246.468 641.245 247.257 639.794 248.836C638.343 250.372 637.618 252.42 637.618 254.98V260.74C637.618 263.3 638.343 265.369 639.794 266.948C641.245 268.484 643.186 269.252 645.618 269.252ZM706.17 268.996H705.85C705.125 270.959 703.93 272.495 702.266 273.604C700.645 274.713 698.725 275.268 696.506 275.268C692.282 275.268 689.018 273.753 686.714 270.724C684.41 267.652 683.258 263.364 683.258 257.86C683.258 252.356 684.41 248.089 686.714 245.06C689.018 241.988 692.282 240.452 696.506 240.452C698.725 240.452 700.645 241.007 702.266 242.116C703.93 243.183 705.125 244.719 705.85 246.724H706.17V227.14H713.146V274.5H706.17V268.996ZM698.618 269.252C700.751 269.252 702.543 268.74 703.994 267.716C705.445 266.649 706.17 265.263 706.17 263.556V252.164C706.17 250.457 705.445 249.092 703.994 248.068C702.543 247.001 700.751 246.468 698.618 246.468C696.186 246.468 694.245 247.257 692.794 248.836C691.343 250.372 690.618 252.42 690.618 254.98V260.74C690.618 263.3 691.343 265.369 692.794 266.948C694.245 268.484 696.186 269.252 698.618 269.252ZM726.637 235.268C725.186 235.268 724.12 234.927 723.437 234.244C722.797 233.561 722.477 232.687 722.477 231.62V230.532C722.477 229.465 722.797 228.591 723.437 227.908C724.12 227.225 725.186 226.884 726.637 226.884C728.088 226.884 729.133 227.225 729.773 227.908C730.413 228.591 730.733 229.465 730.733 230.532V231.62C730.733 232.687 730.413 233.561 729.773 234.244C729.133 234.927 728.088 235.268 726.637 235.268ZM723.117 241.22H730.093V274.5H723.117V241.22ZM769.239 277.636C769.239 281.092 767.916 283.695 765.271 285.444C762.625 287.193 758.316 288.068 752.343 288.068C749.612 288.068 747.287 287.876 745.367 287.492C743.489 287.151 741.932 286.639 740.695 285.956C739.5 285.273 738.625 284.441 738.071 283.46C737.516 282.479 737.239 281.348 737.239 280.068C737.239 278.233 737.729 276.804 738.711 275.78C739.735 274.756 741.143 274.052 742.935 273.668V272.964C740.417 272.153 739.159 270.447 739.159 267.844C739.159 266.137 739.735 264.836 740.887 263.94C742.039 263.001 743.425 262.34 745.047 261.956V261.7C743.084 260.761 741.569 259.46 740.503 257.796C739.479 256.089 738.967 254.105 738.967 251.844C738.967 248.431 740.097 245.679 742.359 243.588C744.663 241.497 747.948 240.452 752.215 240.452C754.561 240.452 756.567 240.793 758.231 241.476V240.58C758.231 239.087 758.572 237.935 759.255 237.124C759.98 236.271 761.089 235.844 762.583 235.844H767.703V241.476H760.919V242.82C762.412 243.801 763.564 245.081 764.375 246.66C765.185 248.196 765.591 249.924 765.591 251.844C765.591 255.215 764.439 257.945 762.135 260.036C759.831 262.084 756.545 263.108 752.279 263.108C750.657 263.108 749.207 262.937 747.927 262.596C747.073 262.895 746.327 263.321 745.687 263.876C745.047 264.388 744.727 265.071 744.727 265.924C744.727 266.82 745.132 267.46 745.943 267.844C746.753 268.228 747.905 268.42 749.399 268.42H757.591C761.687 268.42 764.652 269.252 766.487 270.916C768.321 272.537 769.239 274.777 769.239 277.636ZM762.711 278.404C762.711 277.252 762.263 276.335 761.367 275.652C760.513 274.969 758.935 274.628 756.631 274.628H745.367C743.831 275.524 743.062 276.804 743.062 278.468C743.062 279.833 743.596 280.921 744.663 281.732C745.772 282.585 747.628 283.012 750.231 283.012H754.583C760.001 283.012 762.711 281.476 762.711 278.404ZM752.279 258.052C754.327 258.052 755.905 257.604 757.015 256.708C758.167 255.769 758.743 254.34 758.743 252.42V251.14C758.743 249.22 758.167 247.812 757.015 246.916C755.905 245.977 754.327 245.508 752.279 245.508C750.231 245.508 748.631 245.977 747.479 246.916C746.369 247.812 745.815 249.22 745.815 251.14V252.42C745.815 254.34 746.369 255.769 747.479 256.708C748.631 257.604 750.231 258.052 752.279 258.052ZM777.95 235.268C776.499 235.268 775.432 234.927 774.75 234.244C774.11 233.561 773.79 232.687 773.79 231.62V230.532C773.79 229.465 774.11 228.591 774.75 227.908C775.432 227.225 776.499 226.884 777.95 226.884C779.4 226.884 780.446 227.225 781.086 227.908C781.726 228.591 782.046 229.465 782.046 230.532V231.62C782.046 232.687 781.726 233.561 781.086 234.244C780.446 234.927 779.4 235.268 777.95 235.268ZM774.43 241.22H781.406V274.5H774.43V241.22ZM800.583 274.5C798.151 274.5 796.316 273.881 795.079 272.644C793.842 271.364 793.223 269.572 793.223 267.268V246.916H788.039V241.22H790.855C792.007 241.22 792.796 240.964 793.223 240.452C793.692 239.94 793.927 239.108 793.927 237.956V232.132H800.199V241.22H807.175V246.916H800.199V268.804H806.663V274.5H800.583ZM839.126 274.5C837.291 274.5 835.883 273.988 834.902 272.964C833.921 271.897 833.323 270.553 833.11 268.932H832.79C832.15 271.023 830.977 272.601 829.27 273.668C827.563 274.735 825.494 275.268 823.062 275.268C819.606 275.268 816.939 274.372 815.062 272.58C813.227 270.788 812.31 268.377 812.31 265.348C812.31 262.02 813.505 259.524 815.894 257.86C818.326 256.196 821.867 255.364 826.518 255.364H832.534V252.548C832.534 250.5 831.979 248.921 830.87 247.812C829.761 246.703 828.033 246.148 825.686 246.148C823.723 246.148 822.123 246.575 820.886 247.428C819.649 248.281 818.603 249.369 817.75 250.692L813.59 246.916C814.699 245.039 816.257 243.503 818.262 242.308C820.267 241.071 822.891 240.452 826.134 240.452C830.443 240.452 833.75 241.455 836.054 243.46C838.358 245.465 839.51 248.345 839.51 252.1V268.804H843.03V274.5H839.126ZM825.046 269.956C827.222 269.956 829.014 269.487 830.422 268.548C831.83 267.567 832.534 266.265 832.534 264.644V259.844H826.646C821.825 259.844 819.414 261.337 819.414 264.324V265.476C819.414 266.969 819.905 268.1 820.886 268.868C821.91 269.593 823.297 269.956 825.046 269.956ZM856.971 274.5C854.582 274.5 852.79 273.903 851.595 272.708C850.443 271.471 849.867 269.764 849.867 267.588V227.14H856.843V268.804H861.451V274.5H856.971ZM226.048 352.268C223.659 352.268 221.525 351.863 219.648 351.052C217.771 350.241 216.171 349.089 214.848 347.596C213.525 346.06 212.501 344.225 211.776 342.092C211.093 339.916 210.752 337.505 210.752 334.86C210.752 332.215 211.093 329.825 211.776 327.692C212.501 325.516 213.525 323.681 214.848 322.188C216.171 320.652 217.771 319.479 219.648 318.668C221.525 317.857 223.659 317.452 226.048 317.452C228.48 317.452 230.613 317.879 232.448 318.732C234.325 319.585 235.883 320.78 237.12 322.316C238.357 323.809 239.275 325.559 239.872 327.564C240.512 329.569 240.832 331.724 240.832 334.028V336.652H217.984V337.74C217.984 340.3 218.731 342.412 220.224 344.076C221.76 345.697 223.936 346.508 226.752 346.508C228.8 346.508 230.528 346.06 231.936 345.164C233.344 344.268 234.539 343.052 235.52 341.516L239.616 345.548C238.379 347.596 236.587 349.239 234.24 350.476C231.893 351.671 229.163 352.268 226.048 352.268ZM226.048 322.892C224.853 322.892 223.744 323.105 222.72 323.532C221.739 323.959 220.885 324.556 220.16 325.324C219.477 326.092 218.944 327.009 218.56 328.076C218.176 329.143 217.984 330.316 217.984 331.596V332.044H233.472V331.404C233.472 328.844 232.811 326.796 231.488 325.26C230.165 323.681 228.352 322.892 226.048 322.892ZM243.968 351.5L255.68 334.668L244.288 318.22H252.352L259.84 329.804H260.032L267.712 318.22H275.136L263.744 334.604L275.328 351.5H267.264L259.583 339.404H259.392L251.392 351.5H243.968ZM281.617 318.22H288.593V323.724H288.913C289.638 321.719 290.812 320.183 292.433 319.116C294.097 318.007 296.038 317.452 298.257 317.452C302.481 317.452 305.745 318.988 308.049 322.06C310.353 325.089 311.505 329.356 311.505 334.86C311.505 340.364 310.353 344.652 308.049 347.724C305.745 350.753 302.481 352.268 298.257 352.268C296.038 352.268 294.097 351.713 292.433 350.604C290.812 349.495 289.638 347.959 288.913 345.996H288.593V364.3H281.617V318.22ZM296.145 346.252C298.577 346.252 300.518 345.484 301.969 343.948C303.42 342.369 304.145 340.3 304.145 337.74V331.98C304.145 329.42 303.42 327.372 301.969 325.836C300.518 324.257 298.577 323.468 296.145 323.468C294.012 323.468 292.22 324.001 290.769 325.068C289.318 326.092 288.593 327.457 288.593 329.164V340.556C288.593 342.263 289.318 343.649 290.769 344.716C292.22 345.74 294.012 346.252 296.145 346.252ZM332.548 352.268C330.159 352.268 328.025 351.863 326.148 351.052C324.271 350.241 322.671 349.089 321.348 347.596C320.025 346.06 319.001 344.225 318.276 342.092C317.593 339.916 317.252 337.505 317.252 334.86C317.252 332.215 317.593 329.825 318.276 327.692C319.001 325.516 320.025 323.681 321.348 322.188C322.671 320.652 324.271 319.479 326.148 318.668C328.025 317.857 330.159 317.452 332.548 317.452C334.98 317.452 337.113 317.879 338.948 318.732C340.825 319.585 342.383 320.78 343.62 322.316C344.857 323.809 345.775 325.559 346.372 327.564C347.012 329.569 347.332 331.724 347.332 334.028V336.652H324.484V337.74C324.484 340.3 325.231 342.412 326.724 344.076C328.26 345.697 330.436 346.508 333.252 346.508C335.3 346.508 337.028 346.06 338.436 345.164C339.844 344.268 341.039 343.052 342.02 341.516L346.116 345.548C344.879 347.596 343.087 349.239 340.74 350.476C338.393 351.671 335.663 352.268 332.548 352.268ZM332.548 322.892C331.353 322.892 330.244 323.105 329.22 323.532C328.239 323.959 327.385 324.556 326.66 325.324C325.977 326.092 325.444 327.009 325.06 328.076C324.676 329.143 324.484 330.316 324.484 331.596V332.044H339.972V331.404C339.972 328.844 339.311 326.796 337.988 325.26C336.665 323.681 334.852 322.892 332.548 322.892ZM355.055 351.5V318.22H362.031V324.62H362.351C362.82 322.913 363.801 321.42 365.295 320.14C366.788 318.86 368.857 318.22 371.503 318.22H373.359V324.94H370.607C367.833 324.94 365.7 325.388 364.207 326.284C362.756 327.18 362.031 328.503 362.031 330.252V351.5H355.055ZM383.075 312.268C381.624 312.268 380.557 311.927 379.875 311.244C379.235 310.561 378.915 309.687 378.915 308.62V307.532C378.915 306.465 379.235 305.591 379.875 304.908C380.557 304.225 381.624 303.884 383.075 303.884C384.525 303.884 385.571 304.225 386.211 304.908C386.851 305.591 387.171 306.465 387.171 307.532V308.62C387.171 309.687 386.851 310.561 386.211 311.244C385.571 311.927 384.525 312.268 383.075 312.268ZM379.555 318.22H386.531V351.5H379.555V318.22ZM409.548 352.268C407.159 352.268 405.025 351.863 403.148 351.052C401.271 350.241 399.671 349.089 398.348 347.596C397.025 346.06 396.001 344.225 395.276 342.092C394.593 339.916 394.252 337.505 394.252 334.86C394.252 332.215 394.593 329.825 395.276 327.692C396.001 325.516 397.025 323.681 398.348 322.188C399.671 320.652 401.271 319.479 403.148 318.668C405.025 317.857 407.159 317.452 409.548 317.452C411.98 317.452 414.113 317.879 415.948 318.732C417.825 319.585 419.383 320.78 420.62 322.316C421.857 323.809 422.775 325.559 423.372 327.564C424.012 329.569 424.332 331.724 424.332 334.028V336.652H401.484V337.74C401.484 340.3 402.231 342.412 403.724 344.076C405.26 345.697 407.436 346.508 410.252 346.508C412.3 346.508 414.028 346.06 415.436 345.164C416.844 344.268 418.039 343.052 419.02 341.516L423.116 345.548C421.879 347.596 420.087 349.239 417.74 350.476C415.393 351.671 412.663 352.268 409.548 352.268ZM409.548 322.892C408.353 322.892 407.244 323.105 406.22 323.532C405.239 323.959 404.385 324.556 403.66 325.324C402.977 326.092 402.444 327.009 402.06 328.076C401.676 329.143 401.484 330.316 401.484 331.596V332.044H416.972V331.404C416.972 328.844 416.311 326.796 414.988 325.26C413.665 323.681 411.852 322.892 409.548 322.892ZM432.055 351.5V318.22H439.031V323.724H439.351C440.076 321.932 441.164 320.439 442.615 319.244C444.108 318.049 446.135 317.452 448.695 317.452C452.108 317.452 454.753 318.583 456.631 320.844C458.551 323.063 459.511 326.241 459.511 330.38V351.5H452.535V331.276C452.535 326.071 450.444 323.468 446.263 323.468C445.367 323.468 444.471 323.596 443.575 323.852C442.721 324.065 441.953 324.407 441.271 324.876C440.588 325.345 440.033 325.943 439.607 326.668C439.223 327.393 439.031 328.247 439.031 329.228V351.5H432.055ZM482.044 352.268C479.654 352.268 477.521 351.863 475.644 351.052C473.766 350.241 472.188 349.089 470.908 347.596C469.628 346.06 468.646 344.225 467.964 342.092C467.281 339.916 466.94 337.505 466.94 334.86C466.94 332.215 467.281 329.825 467.964 327.692C468.646 325.516 469.628 323.681 470.908 322.188C472.188 320.652 473.766 319.479 475.644 318.668C477.521 317.857 479.654 317.452 482.044 317.452C485.372 317.452 488.102 318.199 490.236 319.692C492.369 321.185 493.926 323.169 494.908 325.644L489.148 328.332C488.678 326.796 487.846 325.58 486.652 324.684C485.5 323.745 483.964 323.276 482.044 323.276C479.484 323.276 477.542 324.087 476.22 325.708C474.94 327.287 474.3 329.356 474.3 331.916V337.868C474.3 340.428 474.94 342.519 476.22 344.14C477.542 345.719 479.484 346.508 482.044 346.508C484.092 346.508 485.713 346.017 486.908 345.036C488.145 344.012 489.126 342.668 489.852 341.004L495.164 343.82C494.054 346.551 492.39 348.641 490.172 350.092C487.953 351.543 485.244 352.268 482.044 352.268ZM514.486 352.268C512.096 352.268 509.963 351.863 508.086 351.052C506.208 350.241 504.608 349.089 503.286 347.596C501.963 346.06 500.939 344.225 500.214 342.092C499.531 339.916 499.19 337.505 499.19 334.86C499.19 332.215 499.531 329.825 500.214 327.692C500.939 325.516 501.963 323.681 503.286 322.188C504.608 320.652 506.208 319.479 508.086 318.668C509.963 317.857 512.096 317.452 514.486 317.452C516.918 317.452 519.051 317.879 520.886 318.732C522.763 319.585 524.32 320.78 525.558 322.316C526.795 323.809 527.712 325.559 528.31 327.564C528.95 329.569 529.27 331.724 529.27 334.028V336.652H506.422V337.74C506.422 340.3 507.168 342.412 508.662 344.076C510.198 345.697 512.374 346.508 515.19 346.508C517.238 346.508 518.966 346.06 520.374 345.164C521.782 344.268 522.976 343.052 523.958 341.516L528.054 345.548C526.816 347.596 525.024 349.239 522.678 350.476C520.331 351.671 517.6 352.268 514.486 352.268ZM514.486 322.892C513.291 322.892 512.182 323.105 511.158 323.532C510.176 323.959 509.323 324.556 508.598 325.324C507.915 326.092 507.382 327.009 506.998 328.076C506.614 329.143 506.422 330.316 506.422 331.596V332.044H521.91V331.404C521.91 328.844 521.248 326.796 519.926 325.26C518.603 323.681 516.79 322.892 514.486 322.892ZM547.552 352.268C544.395 352.268 541.749 351.713 539.616 350.604C537.483 349.495 535.627 347.959 534.048 345.996L538.528 341.9C539.765 343.393 541.131 344.567 542.624 345.42C544.16 346.231 545.931 346.636 547.936 346.636C549.984 346.636 551.499 346.252 552.48 345.484C553.504 344.673 554.016 343.564 554.016 342.156C554.016 341.089 553.653 340.193 552.928 339.468C552.245 338.7 551.029 338.209 549.28 337.996L546.208 337.612C542.795 337.185 540.107 336.204 538.144 334.668C536.224 333.089 535.264 330.764 535.264 327.692C535.264 326.071 535.563 324.641 536.16 323.404C536.757 322.124 537.589 321.057 538.656 320.204C539.765 319.308 541.067 318.625 542.56 318.156C544.096 317.687 545.781 317.452 547.616 317.452C550.603 317.452 553.035 317.921 554.912 318.86C556.832 319.799 558.539 321.1 560.032 322.764L555.744 326.86C554.891 325.836 553.76 324.961 552.352 324.236C550.987 323.468 549.408 323.084 547.616 323.084C545.696 323.084 544.267 323.468 543.328 324.236C542.432 325.004 541.984 326.007 541.984 327.244C541.984 328.524 542.389 329.484 543.2 330.124C544.011 330.764 545.312 331.233 547.104 331.532L550.176 331.916C553.845 332.471 556.512 333.559 558.176 335.18C559.883 336.759 560.736 338.892 560.736 341.58C560.736 343.201 560.416 344.673 559.776 345.996C559.179 347.276 558.304 348.385 557.152 349.324C556 350.263 554.613 350.988 552.992 351.5C551.371 352.012 549.557 352.268 547.552 352.268Z" fill="#EDEDEF"/>
</g>
<defs>
<filter id="filter0_f_3824_386" x="212.707" y="-278.393" width="1226.53" height="1226.53" filterUnits="userSpaceOnUse" color-interpolation-filters="sRGB">
<feFlood flood-opacity="0" result="BackgroundImageFix"/>
<feBlend mode="normal" in="SourceGraphic" in2="BackgroundImageFix" result="shape"/>
<feGaussianBlur stdDeviation="119.621" result="effect1_foregroundBlur_3824_386"/>
</filter>
<filter id="filter1_f_3824_386" x="-239.241" y="-27.1561" width="1140.76" height="926.842" filterUnits="userSpaceOnUse" color-interpolation-filters="sRGB">
<feFlood flood-opacity="0" result="BackgroundImageFix"/>
<feBlend mode="normal" in="SourceGraphic" in2="BackgroundImageFix" result="shape"/>
<feGaussianBlur stdDeviation="119.621" result="effect1_foregroundBlur_3824_386"/>
</filter>
<filter id="filter2_f_3824_386" x="-114.307" y="-468.241" width="1226.53" height="1226.53" filterUnits="userSpaceOnUse" color-interpolation-filters="sRGB">
<feFlood flood-opacity="0" result="BackgroundImageFix"/>
<feBlend mode="normal" in="SourceGraphic" in2="BackgroundImageFix" result="shape"/>
<feGaussianBlur stdDeviation="119.621" result="effect1_foregroundBlur_3824_386"/>
</filter>
<clipPath id="clip0_3824_386">
<rect width="1200" height="480" fill="white"/>
</clipPath>
</defs>
</svg>
