<svg width="1200" height="480" viewBox="0 0 1200 480" fill="none" xmlns="http://www.w3.org/2000/svg">
<g clip-path="url(#clip0_3824_386)">
<rect width="1200" height="480" fill="#161618"/>
<g filter="url(#filter0_f_3824_386)">
<circle cx="825.974" cy="334.874" r="374.026" fill="#AB4ABA" fill-opacity="0.1"/>
</g>
<g filter="url(#filter1_f_3824_386)">
<ellipse cx="331.139" cy="436.265" rx="331.139" ry="224.18" fill="#F5D90A" fill-opacity="0.1"/>
</g>
<g filter="url(#filter2_f_3824_386)">
<circle cx="498.961" cy="145.026" r="374.026" fill="#E93D82" fill-opacity="0.1"/>
</g>
<path fill-rule="evenodd" clip-rule="evenodd" d="M244.923 154.5C244.923 150.56 244.147 146.659 242.639 143.019C241.211 139.571 239.153 136.421 236.571 133.731H244.923V124.5H235.692V132.852C233.002 130.27 229.852 128.212 226.404 126.784C223.476 125.571 220.38 124.832 217.231 124.589V133.731H208V154.5H217.231V133.859C219.166 134.076 221.065 134.564 222.871 135.312C225.391 136.355 227.681 137.885 229.609 139.814C231.538 141.743 233.068 144.032 234.111 146.552C235.155 149.072 235.692 151.773 235.692 154.5H244.923Z" fill="#FE4974"/>
<path d="M275.829 131.907C277.321 131.907 278.653 132.217 279.824 132.837C281.017 133.457 281.947 134.375 282.613 135.592C283.278 136.808 283.611 138.278 283.611 139.999V151.19H279.72V140.585C279.72 138.886 279.296 137.589 278.446 136.694C277.597 135.775 276.438 135.316 274.968 135.316C273.499 135.316 272.329 135.775 271.456 136.694C270.607 137.589 270.182 138.886 270.182 140.585V151.19H266.257V132.217H270.182V134.387C270.825 133.606 271.64 132.998 272.627 132.562C273.637 132.126 274.704 131.907 275.829 131.907Z" fill="white"/>
<path d="M287.31 141.618C287.31 139.712 287.7 138.025 288.481 136.556C289.284 135.087 290.363 133.951 291.717 133.147C293.095 132.321 294.61 131.907 296.262 131.907C297.755 131.907 299.052 132.206 300.153 132.803C301.278 133.377 302.174 134.1 302.839 134.972V132.217H306.799V151.19H302.839V148.367C302.174 149.262 301.267 150.008 300.119 150.605C298.971 151.202 297.663 151.5 296.194 151.5C294.564 151.5 293.072 151.087 291.717 150.26C290.363 149.411 289.284 148.24 288.481 146.748C287.7 145.233 287.31 143.523 287.31 141.618ZM302.839 141.687C302.839 140.378 302.564 139.242 302.013 138.278C301.485 137.313 300.785 136.579 299.912 136.074C299.04 135.569 298.099 135.316 297.089 135.316C296.079 135.316 295.138 135.569 294.265 136.074C293.393 136.556 292.681 137.279 292.13 138.243C291.603 139.184 291.339 140.309 291.339 141.618C291.339 142.926 291.603 144.074 292.13 145.061C292.681 146.048 293.393 146.806 294.265 147.334C295.161 147.839 296.102 148.091 297.089 148.091C298.099 148.091 299.04 147.839 299.912 147.334C300.785 146.829 301.485 146.094 302.013 145.13C302.564 144.143 302.839 142.995 302.839 141.687Z" fill="white"/>
<path d="M316.535 135.42V145.922C316.535 146.633 316.695 147.15 317.017 147.471C317.361 147.77 317.935 147.919 318.738 147.919H321.149V151.19H318.05C316.282 151.19 314.928 150.777 313.986 149.951C313.045 149.124 312.575 147.781 312.575 145.922V135.42H310.337V132.217H312.575V127.5H316.535V132.217H321.149V135.42H316.535Z" fill="white"/>
<path d="M329.346 135.42V145.922C329.346 146.633 329.507 147.15 329.828 147.471C330.173 147.77 330.746 147.919 331.55 147.919H333.96V151.19H330.861C329.094 151.19 327.739 150.777 326.798 149.951C325.857 149.124 325.386 147.781 325.386 145.922V135.42H323.148V132.217H325.386V127.5H329.346V132.217H333.96V135.42H329.346Z" fill="white"/>
<circle cx="359.96" cy="139.5" r="2" fill="white" fill-opacity="0.25"/>
<path d="M413.96 149.5C419.483 149.5 423.96 145.023 423.96 139.5C423.96 133.977 419.483 129.5 413.96 129.5C408.437 129.5 403.96 133.977 403.96 139.5C403.96 145.023 408.437 149.5 413.96 149.5Z" stroke="white" stroke-width="1.5" stroke-linecap="round" stroke-linejoin="round"/>
<path d="M413.96 129.5C411.392 132.196 409.96 135.777 409.96 139.5C409.96 143.223 411.392 146.804 413.96 149.5C416.528 146.804 417.96 143.223 417.96 139.5C417.96 135.777 416.528 132.196 413.96 129.5Z" stroke="white" stroke-width="1.5" stroke-linecap="round" stroke-linejoin="round"/>
<path d="M403.96 139.5H423.96" stroke="white" stroke-width="1.5" stroke-linecap="round" stroke-linejoin="round"/>
<path d="M437.96 146.7V135.7H439.76V137.8H440.14L439.76 138.22C439.76 137.353 440.02 136.687 440.54 136.22C441.06 135.74 441.78 135.5 442.7 135.5C443.807 135.5 444.687 135.84 445.34 136.52C445.993 137.2 446.32 138.127 446.32 139.3V146.7H444.52V139.5C444.52 138.713 444.307 138.113 443.88 137.7C443.467 137.273 442.9 137.06 442.18 137.06C441.433 137.06 440.84 137.287 440.4 137.74C439.973 138.193 439.76 138.847 439.76 139.7V146.7H437.96Z" fill="white"/>
<path d="M453.152 146.9C451.992 146.9 451.079 146.607 450.412 146.02C449.745 145.42 449.412 144.613 449.412 143.6C449.412 142.573 449.745 141.767 450.412 141.18C451.079 140.593 451.979 140.3 453.112 140.3H456.512V139.2C456.512 138.533 456.305 138.013 455.892 137.64C455.492 137.267 454.932 137.08 454.212 137.08C453.572 137.08 453.032 137.22 452.592 137.5C452.152 137.78 451.879 138.147 451.772 138.6H449.972C450.039 137.987 450.259 137.447 450.632 136.98C451.019 136.513 451.519 136.153 452.132 135.9C452.759 135.633 453.452 135.5 454.212 135.5C455.479 135.5 456.479 135.827 457.212 136.48C457.945 137.133 458.312 138.02 458.312 139.14V146.7H456.552V144.6H456.252L456.552 144.3C456.552 145.1 456.239 145.733 455.612 146.2C454.999 146.667 454.179 146.9 453.152 146.9ZM453.592 145.48C454.445 145.48 455.145 145.267 455.692 144.84C456.239 144.413 456.512 143.867 456.512 143.2V141.64H453.152C452.552 141.64 452.079 141.807 451.732 142.14C451.385 142.473 451.212 142.927 451.212 143.5C451.212 144.113 451.419 144.6 451.832 144.96C452.259 145.307 452.845 145.48 453.592 145.48Z" fill="white"/>
<path d="M467.304 146.7C466.398 146.7 465.671 146.44 465.124 145.92C464.578 145.387 464.304 144.68 464.304 143.8V137.34H461.204V135.7H464.304V132.6H466.104V135.7H470.504V137.34H466.104V143.8C466.104 144.173 466.211 144.48 466.424 144.72C466.651 144.947 466.944 145.06 467.304 145.06H470.304V146.7H467.304Z" fill="white"/>
<path d="M479.297 146.7C478.39 146.7 477.663 146.44 477.117 145.92C476.57 145.387 476.297 144.68 476.297 143.8V137.34H473.197V135.7H476.297V132.6H478.097V135.7H482.497V137.34H478.097V143.8C478.097 144.173 478.203 144.48 478.417 144.72C478.643 144.947 478.937 145.06 479.297 145.06H482.297V146.7H479.297Z" fill="white"/>
<path d="M490.089 146.9C489.582 146.9 489.175 146.753 488.869 146.46C488.575 146.167 488.429 145.773 488.429 145.28C488.429 144.76 488.575 144.347 488.869 144.04C489.175 143.733 489.582 143.58 490.089 143.58C490.595 143.58 490.995 143.733 491.289 144.04C491.595 144.347 491.749 144.76 491.749 145.28C491.749 145.773 491.595 146.167 491.289 146.46C490.995 146.753 490.595 146.9 490.089 146.9Z" fill="white"/>
<path d="M501.741 146.86C500.994 146.86 500.328 146.747 499.741 146.52C499.154 146.28 498.694 145.94 498.361 145.5C498.041 145.06 497.881 144.54 497.881 143.94H499.721C499.721 144.353 499.914 144.68 500.301 144.92C500.701 145.147 501.194 145.26 501.781 145.26H502.621C503.328 145.26 503.854 145.12 504.201 144.84C504.548 144.547 504.721 144.16 504.721 143.68C504.721 143.213 504.554 142.847 504.221 142.58C503.901 142.3 503.434 142.113 502.821 142.02L501.341 141.78C500.248 141.593 499.441 141.247 498.921 140.74C498.401 140.233 498.141 139.533 498.141 138.64C498.141 137.64 498.461 136.873 499.101 136.34C499.754 135.807 500.688 135.54 501.901 135.54H502.661C503.781 135.54 504.674 135.793 505.341 136.3C506.021 136.793 506.361 137.453 506.361 138.28H504.521C504.521 137.933 504.348 137.66 504.001 137.46C503.668 137.247 503.208 137.14 502.621 137.14H501.861C501.234 137.14 500.748 137.273 500.401 137.54C500.068 137.793 499.901 138.16 499.901 138.64C499.901 139.44 500.468 139.933 501.601 140.12L503.081 140.36C504.268 140.547 505.128 140.893 505.661 141.4C506.208 141.907 506.481 142.64 506.481 143.6C506.481 144.613 506.154 145.413 505.501 146C504.861 146.573 503.888 146.86 502.581 146.86H501.741Z" fill="white"/>
<path d="M509.913 146.7V132.1H511.713V137.8H512.093L511.713 138.22C511.713 137.353 511.973 136.687 512.493 136.22C513.013 135.74 513.733 135.5 514.653 135.5C515.76 135.5 516.64 135.84 517.293 136.52C517.946 137.2 518.273 138.127 518.273 139.3V146.7H516.473V139.5C516.473 138.713 516.26 138.107 515.833 137.68C515.42 137.24 514.853 137.02 514.133 137.02C513.386 137.02 512.793 137.253 512.353 137.72C511.926 138.187 511.713 138.847 511.713 139.7V146.7H509.913Z" fill="white"/>
<rect x="386.46" y="116" width="147.313" height="47" rx="23.5" stroke="white" stroke-opacity="0.75"/>
<path d="M246.912 242.972C246.485 238.961 245.077 235.847 242.688 233.628C240.341 231.409 237.312 230.3 233.6 230.3C231.339 230.3 229.205 230.791 227.2 231.772C225.237 232.711 223.509 234.076 222.016 235.868C220.523 237.66 219.349 239.815 218.496 242.332C217.643 244.849 217.216 247.687 217.216 250.844C217.216 254.855 217.984 258.396 219.52 261.468C221.056 264.54 223.125 266.929 225.728 268.636C228.331 270.343 231.211 271.196 234.368 271.196C237.141 271.196 239.872 270.577 242.56 269.34C245.248 268.06 247.445 266.225 249.152 263.836L250.816 265.18C248.981 267.697 246.997 269.639 244.864 271.004C242.731 272.369 240.597 273.287 238.464 273.756C236.373 274.268 234.453 274.524 232.704 274.524C229.504 274.524 226.56 273.948 223.872 272.796C221.227 271.644 218.923 270.044 216.96 267.996C215.04 265.905 213.547 263.495 212.48 260.764C211.456 257.991 210.944 255.004 210.944 251.804C210.944 248.775 211.392 245.831 212.288 242.972C213.227 240.113 214.613 237.532 216.448 235.228C218.283 232.924 220.587 231.089 223.36 229.724C226.176 228.359 229.44 227.676 233.152 227.676C235.541 227.676 237.803 227.996 239.936 228.636C242.069 229.276 244.117 230.257 246.08 231.58L245.76 228.124H249.216V242.972H246.912ZM255.566 271.58C256.889 271.58 257.806 271.26 258.318 270.62C258.83 269.937 259.129 269.02 259.214 267.868C259.299 266.673 259.342 265.308 259.342 263.772V249.18C259.342 248.497 259.342 247.815 259.342 247.132C259.385 246.449 259.47 245.745 259.598 245.02C258.83 245.063 258.062 245.105 257.294 245.148C256.569 245.148 255.822 245.169 255.054 245.212V242.588H257.038C258.873 242.588 260.131 242.417 260.814 242.076C261.539 241.692 262.137 241.287 262.606 240.86H264.462C264.547 241.543 264.611 242.396 264.654 243.42C264.697 244.401 264.739 245.66 264.782 247.196C265.422 246.129 266.297 245.084 267.406 244.06C268.515 243.036 269.753 242.183 271.118 241.5C272.526 240.817 273.998 240.476 275.534 240.476C276.729 240.476 277.774 240.796 278.67 241.436C279.566 242.076 280.014 243.1 280.014 244.508C280.014 244.849 279.907 245.276 279.694 245.788C279.481 246.257 279.139 246.684 278.67 247.068C278.201 247.409 277.582 247.58 276.814 247.58C275.875 247.537 275.129 247.175 274.574 246.492C274.019 245.767 273.806 244.935 273.934 243.996C272.867 243.953 271.758 244.231 270.606 244.828C269.497 245.425 268.451 246.257 267.47 247.324C266.489 248.348 265.614 249.564 264.846 250.972L264.91 266.716C264.91 267.569 264.889 268.337 264.846 269.02C264.846 269.66 264.782 270.343 264.654 271.068C265.337 271.025 265.998 271.004 266.638 271.004C267.321 270.961 268.003 270.919 268.686 270.876V273.5H255.566V271.58ZM302.272 273.5C302.144 272.775 302.059 272.135 302.016 271.58C301.973 271.025 301.909 270.449 301.824 269.852C300.373 271.303 298.795 272.455 297.088 273.308C295.424 274.119 293.653 274.524 291.776 274.524C288.533 274.524 286.123 273.799 284.544 272.348C282.965 270.855 282.176 269.041 282.176 266.908C282.176 264.945 282.773 263.26 283.968 261.852C285.205 260.401 286.784 259.228 288.704 258.332C290.667 257.393 292.779 256.711 295.04 256.284C297.344 255.815 299.563 255.601 301.696 255.644V251.676C301.696 250.183 301.568 248.775 301.312 247.452C301.056 246.129 300.501 245.041 299.648 244.188C298.795 243.335 297.429 242.887 295.552 242.844C294.315 242.801 293.035 243.036 291.712 243.548C290.432 244.06 289.493 244.935 288.896 246.172C289.237 246.513 289.451 246.919 289.536 247.388C289.664 247.815 289.728 248.22 289.728 248.604C289.728 249.116 289.515 249.713 289.088 250.396C288.661 251.036 287.915 251.335 286.848 251.292C285.952 251.292 285.269 250.993 284.8 250.396C284.331 249.756 284.096 249.009 284.096 248.156C284.096 246.705 284.629 245.404 285.696 244.252C286.805 243.1 288.32 242.183 290.24 241.5C292.16 240.817 294.336 240.476 296.768 240.476C300.352 240.476 302.997 241.436 304.704 243.356C306.411 245.233 307.243 248.22 307.2 252.316C307.2 253.895 307.2 255.495 307.2 257.116C307.2 258.695 307.179 260.295 307.136 261.916C307.136 263.495 307.136 265.095 307.136 266.716C307.136 267.399 307.115 268.081 307.072 268.764C307.029 269.447 306.965 270.215 306.88 271.068C307.648 271.025 308.395 270.983 309.12 270.94C309.888 270.897 310.656 270.855 311.424 270.812V273.5H302.272ZM301.696 257.82C300.245 257.863 298.709 258.055 297.088 258.396C295.509 258.695 294.037 259.164 292.672 259.804C291.349 260.444 290.261 261.297 289.408 262.364C288.597 263.388 288.213 264.647 288.256 266.14C288.341 267.719 288.853 268.913 289.792 269.724C290.773 270.492 291.925 270.876 293.248 270.876C294.997 270.876 296.512 270.556 297.792 269.916C299.115 269.233 300.416 268.295 301.696 267.1C301.653 266.631 301.632 266.119 301.632 265.564C301.632 265.009 301.632 264.433 301.632 263.836C301.632 263.623 301.632 262.94 301.632 261.788C301.675 260.636 301.696 259.313 301.696 257.82ZM319.848 240.156C319.848 235.42 320.701 231.687 322.408 228.956C324.157 226.225 327.144 224.86 331.368 224.86C332.307 224.86 333.288 225.031 334.312 225.372C335.379 225.671 336.296 226.183 337.064 226.908C337.832 227.591 338.216 228.487 338.216 229.596C338.216 230.407 337.981 231.089 337.512 231.644C337.085 232.199 336.445 232.476 335.592 232.476C334.568 232.519 333.843 232.22 333.416 231.58C333.032 230.897 332.84 230.321 332.84 229.852C332.84 229.596 332.861 229.34 332.904 229.084C332.947 228.828 333.032 228.551 333.16 228.252C332.861 227.868 332.435 227.591 331.88 227.42C331.368 227.249 330.877 227.164 330.408 227.164C329.085 227.164 328.061 227.548 327.336 228.316C326.611 229.084 326.099 230.044 325.8 231.196C325.501 232.348 325.352 233.543 325.352 234.78V241.5H333.992V243.996L325.352 244.188L325.416 266.716C325.416 267.569 325.395 268.337 325.352 269.02C325.352 269.66 325.288 270.343 325.16 271.068C325.843 271.025 326.504 271.004 327.144 271.004C327.827 270.961 328.509 270.919 329.192 270.876V273.5H316.136V271.58C317.459 271.58 318.376 271.26 318.888 270.62C319.4 269.937 319.699 269.02 319.784 267.868C319.869 266.673 319.912 265.308 319.912 263.772L319.848 244.252L314.6 244.38V241.5H319.848V240.156ZM350.223 274.524C349.242 274.524 348.239 274.375 347.215 274.076C346.191 273.82 345.231 273.287 344.335 272.476C343.482 271.665 342.799 270.492 342.287 268.956C341.775 267.377 341.519 265.308 341.519 262.748L341.647 244.188L336.719 244.252V241.5C337.828 241.457 338.959 241.052 340.111 240.284C341.263 239.473 342.287 238.385 343.183 237.02C344.122 235.655 344.762 234.161 345.103 232.54H347.279V241.5H358.031V243.996L347.279 244.124L347.151 261.916C347.151 263.836 347.3 265.479 347.599 266.844C347.94 268.167 348.474 269.169 349.199 269.852C349.924 270.535 350.863 270.876 352.015 270.876C353.21 270.876 354.319 270.535 355.343 269.852C356.41 269.169 357.348 268.231 358.159 267.036L359.887 268.444C358.948 269.852 358.01 270.961 357.071 271.772C356.175 272.583 355.3 273.18 354.447 273.564C353.594 273.991 352.804 274.247 352.079 274.332C351.354 274.46 350.735 274.524 350.223 274.524ZM362.941 271.58C364.264 271.58 365.181 271.26 365.693 270.62C366.205 269.937 366.504 269.02 366.589 267.868C366.674 266.673 366.717 265.308 366.717 263.772V249.18C366.717 248.497 366.738 247.857 366.781 247.26C366.824 246.62 366.888 245.873 366.973 245.02C366.205 245.063 365.437 245.105 364.669 245.148C363.944 245.191 363.197 245.233 362.429 245.276V242.588C364.306 242.588 365.757 242.503 366.781 242.332C367.805 242.161 368.573 241.948 369.085 241.692C369.64 241.436 370.066 241.159 370.365 240.86H372.221V266.716C372.221 267.569 372.2 268.337 372.157 269.02C372.157 269.66 372.093 270.343 371.965 271.068C372.648 271.025 373.309 271.004 373.949 271.004C374.632 270.961 375.314 270.919 375.997 270.876V273.5H362.941V271.58ZM369.149 234.524C368.253 234.524 367.464 234.161 366.781 233.436C366.098 232.711 365.757 231.815 365.757 230.748C365.757 229.681 366.098 228.785 366.781 228.06C367.506 227.292 368.317 226.908 369.213 226.908C370.194 226.908 371.005 227.292 371.645 228.06C372.328 228.785 372.669 229.681 372.669 230.748C372.669 231.815 372.306 232.711 371.581 233.436C370.898 234.161 370.088 234.524 369.149 234.524ZM380.941 273.5V271.58C382.264 271.58 383.181 271.26 383.693 270.62C384.205 269.937 384.504 269.02 384.589 267.868C384.674 266.673 384.717 265.308 384.717 263.772L384.781 249.18C384.781 248.497 384.781 247.815 384.781 247.132C384.824 246.449 384.909 245.745 385.037 245.02C384.269 245.063 383.501 245.105 382.733 245.148C382.008 245.191 381.261 245.233 380.493 245.276V242.588C382.37 242.588 383.778 242.503 384.717 242.332C385.698 242.161 386.424 241.948 386.893 241.692C387.362 241.436 387.746 241.159 388.045 240.86H389.901C389.944 241.159 389.965 241.5 389.965 241.884C390.008 242.268 390.05 242.695 390.093 243.164C390.136 243.633 390.157 244.167 390.157 244.764C391.096 243.953 392.12 243.228 393.229 242.588C394.381 241.948 395.576 241.436 396.813 241.052C398.093 240.668 399.352 240.476 400.589 240.476C404.301 240.476 407.01 241.649 408.717 243.996C410.424 246.3 411.277 249.905 411.277 254.812V266.716C411.277 267.569 411.256 268.337 411.213 269.02C411.213 269.66 411.149 270.343 411.021 271.068C411.704 271.025 412.365 271.004 413.005 271.004C413.688 270.961 414.37 270.919 415.053 270.876V273.5H401.997V271.58C403.32 271.58 404.237 271.26 404.749 270.62C405.261 269.937 405.56 269.02 405.645 267.868C405.73 266.673 405.773 265.308 405.773 263.772V254.812C405.73 251.143 405.112 248.369 403.917 246.492C402.765 244.615 400.93 243.697 398.413 243.74C396.877 243.783 395.362 244.188 393.869 244.956C392.418 245.724 391.202 246.705 390.221 247.9C390.264 248.241 390.285 248.625 390.285 249.052C390.285 249.479 390.285 249.927 390.285 250.396L390.221 266.716C390.221 267.569 390.2 268.337 390.157 269.02C390.157 269.66 390.093 270.343 389.965 271.068C390.648 271.025 391.309 271.004 391.949 271.004C392.632 270.961 393.314 270.919 393.997 270.876V273.5H380.941ZM435.24 290.844C431.4 290.844 428.307 290.417 425.96 289.564C423.613 288.711 421.907 287.623 420.84 286.3C419.773 284.977 419.24 283.612 419.24 282.204C419.24 280.881 419.539 279.708 420.136 278.684C420.776 277.703 421.544 276.849 422.44 276.124C423.379 275.399 424.275 274.865 425.128 274.524C423.763 274.055 422.675 273.436 421.864 272.668C421.096 271.857 420.712 270.791 420.712 269.468C420.712 267.975 421.309 266.588 422.504 265.308C423.699 263.985 425.235 263.175 427.112 262.876C425.149 261.937 423.571 260.636 422.376 258.972C421.224 257.308 420.648 255.367 420.648 253.148C420.648 250.588 421.309 248.369 422.632 246.492C423.955 244.572 425.64 243.1 427.688 242.076C429.779 241.009 431.933 240.476 434.152 240.476C435.56 240.476 436.968 240.689 438.376 241.116C439.784 241.5 441.085 242.076 442.28 242.844C442.707 241.649 443.304 240.583 444.072 239.644C444.883 238.705 445.8 237.98 446.824 237.468C447.848 236.913 448.915 236.636 450.024 236.636C451.133 236.636 451.965 236.935 452.52 237.532C453.117 238.087 453.416 238.855 453.416 239.836C453.416 240.135 453.331 240.497 453.16 240.924C452.989 241.351 452.691 241.713 452.264 242.012C451.88 242.311 451.347 242.46 450.664 242.46C449.939 242.46 449.341 242.247 448.872 241.82C448.403 241.393 448.104 240.86 447.976 240.22C446.909 240.391 446.077 240.903 445.48 241.756C444.883 242.567 444.477 243.463 444.264 244.444C445.288 245.383 446.099 246.513 446.696 247.836C447.336 249.159 447.656 250.567 447.656 252.06C447.656 254.449 447.016 256.583 445.736 258.46C444.499 260.337 442.856 261.809 440.808 262.876C438.76 263.9 436.541 264.412 434.152 264.412C433.341 264.412 432.637 264.369 432.04 264.284C431.443 264.156 430.717 264.092 429.864 264.092C428.285 264.092 427.005 264.476 426.024 265.244C425.043 266.012 424.701 266.929 425 267.996C425.341 269.02 426.387 269.681 428.136 269.98C429.885 270.236 432.232 270.428 435.176 270.556C438.461 270.684 441.277 271.068 443.624 271.708C445.971 272.348 447.763 273.329 449 274.652C450.28 276.017 450.92 277.852 450.92 280.156C450.92 281.863 450.451 283.377 449.512 284.7C448.616 286.065 447.4 287.196 445.864 288.092C444.371 288.988 442.685 289.671 440.808 290.14C438.973 290.609 437.117 290.844 435.24 290.844ZM435.176 288.348C438.845 288.348 441.704 287.665 443.752 286.3C445.8 284.935 446.824 283.335 446.824 281.5C446.824 279.921 446.291 278.705 445.224 277.852C444.157 277.041 442.707 276.465 440.872 276.124C439.037 275.825 436.925 275.655 434.536 275.612C433.384 275.569 432.253 275.505 431.144 275.42C430.035 275.377 428.968 275.271 427.944 275.1C426.792 275.868 425.896 276.807 425.256 277.916C424.616 279.025 424.296 280.199 424.296 281.436C424.296 283.527 425.277 285.191 427.24 286.428C429.245 287.708 431.891 288.348 435.176 288.348ZM434.344 262.108C435.923 262.108 437.224 261.724 438.248 260.956C439.315 260.188 440.104 259.143 440.616 257.82C441.171 256.497 441.448 255.004 441.448 253.34C441.448 251.463 441.171 249.713 440.616 248.092C440.061 246.471 439.229 245.169 438.12 244.188C437.053 243.207 435.688 242.716 434.024 242.716C431.72 242.716 429.928 243.591 428.648 245.34C427.411 247.047 426.792 249.18 426.792 251.74C426.792 253.788 427.091 255.601 427.688 257.18C428.285 258.716 429.139 259.932 430.248 260.828C431.4 261.681 432.765 262.108 434.344 262.108ZM472.004 271.58C473.326 271.58 474.244 271.26 474.756 270.62C475.268 269.937 475.566 269.02 475.652 267.868C475.737 266.673 475.78 265.308 475.78 263.772V249.18C475.78 248.497 475.78 247.815 475.78 247.132C475.822 246.449 475.908 245.745 476.036 245.02C475.268 245.063 474.5 245.105 473.732 245.148C473.006 245.148 472.26 245.169 471.492 245.212V242.588H473.476C475.31 242.588 476.569 242.417 477.252 242.076C477.977 241.692 478.574 241.287 479.044 240.86H480.9C480.985 241.543 481.049 242.396 481.092 243.42C481.134 244.401 481.177 245.66 481.22 247.196C481.86 246.129 482.734 245.084 483.844 244.06C484.953 243.036 486.19 242.183 487.556 241.5C488.964 240.817 490.436 240.476 491.972 240.476C493.166 240.476 494.212 240.796 495.108 241.436C496.004 242.076 496.452 243.1 496.452 244.508C496.452 244.849 496.345 245.276 496.132 245.788C495.918 246.257 495.577 246.684 495.108 247.068C494.638 247.409 494.02 247.58 493.252 247.58C492.313 247.537 491.566 247.175 491.012 246.492C490.457 245.767 490.244 244.935 490.372 243.996C489.305 243.953 488.196 244.231 487.044 244.828C485.934 245.425 484.889 246.257 483.908 247.324C482.926 248.348 482.052 249.564 481.284 250.972L481.348 266.716C481.348 267.569 481.326 268.337 481.284 269.02C481.284 269.66 481.22 270.343 481.092 271.068C481.774 271.025 482.436 271.004 483.076 271.004C483.758 270.961 484.441 270.919 485.124 270.876V273.5H472.004V271.58ZM514.742 274.524C511.798 274.524 509.131 273.841 506.742 272.476C504.395 271.068 502.539 269.105 501.174 266.588C499.808 264.028 499.126 261.02 499.126 257.564C499.126 254.577 499.787 251.783 501.11 249.18C502.475 246.577 504.374 244.487 506.806 242.908C509.238 241.287 512.054 240.476 515.253 240.476C517.046 240.476 518.71 240.775 520.246 241.372C521.824 241.927 523.211 242.801 524.406 243.996C525.6 245.148 526.539 246.62 527.222 248.412C527.904 250.161 528.246 252.231 528.246 254.62L505.718 255.004C505.718 258.247 506.059 261.105 506.742 263.58C507.467 266.012 508.619 267.911 510.198 269.276C511.776 270.599 513.803 271.26 516.278 271.26C517.6 271.26 518.944 271.025 520.31 270.556C521.718 270.087 523.019 269.447 524.214 268.636C525.408 267.825 526.368 266.929 527.094 265.948L528.63 267.228C527.478 269.02 526.091 270.449 524.47 271.516C522.848 272.583 521.184 273.351 519.478 273.82C517.771 274.289 516.192 274.524 514.742 274.524ZM505.91 252.316H522.23C522.23 250.78 521.995 249.308 521.526 247.9C521.099 246.449 520.374 245.276 519.35 244.38C518.326 243.441 516.982 242.972 515.318 242.972C512.843 242.972 510.774 243.719 509.11 245.212C507.488 246.663 506.422 249.031 505.91 252.316ZM534.325 273.5V271.58C535.648 271.58 536.565 271.26 537.077 270.62C537.589 269.937 537.888 269.02 537.973 267.868C538.058 266.673 538.101 265.308 538.101 263.772L537.973 244.252L532.725 244.38V241.5H537.973C537.973 236.167 539.253 232.071 541.813 229.212C544.416 226.311 548.106 224.86 552.885 224.86C555.104 224.86 557.109 225.095 558.901 225.564C560.736 226.033 562.208 226.695 563.317 227.548C564.426 228.401 564.981 229.383 564.981 230.492C564.981 231.303 564.746 232.007 564.277 232.604C563.808 233.201 563.125 233.5 562.229 233.5C561.162 233.543 560.416 233.244 559.989 232.604C559.562 231.921 559.349 231.324 559.349 230.812C559.349 230.513 559.37 230.215 559.413 229.916C559.456 229.617 559.541 229.34 559.669 229.084C558.944 228.529 558.048 228.103 556.981 227.804C555.957 227.463 554.762 227.292 553.397 227.292C551.477 227.292 549.77 227.719 548.277 228.572C546.784 229.425 545.61 230.727 544.757 232.476C543.904 234.225 543.477 236.444 543.477 239.132V241.5H558.133C559.114 241.5 559.946 241.479 560.629 241.436C561.354 241.351 561.93 241.265 562.357 241.18C562.784 241.052 563.04 240.945 563.125 240.86H564.981V266.716C564.981 267.569 564.96 268.337 564.917 269.02C564.917 269.66 564.853 270.343 564.725 271.068C565.408 271.025 566.069 271.004 566.709 271.004C567.392 270.961 568.074 270.919 568.757 270.876V273.5H555.701V271.58C557.024 271.58 557.941 271.26 558.453 270.62C558.965 269.937 559.264 269.02 559.349 267.868C559.434 266.673 559.477 265.308 559.477 263.772V247.9C559.477 247.217 559.498 246.577 559.541 245.98C559.584 245.34 559.648 244.593 559.733 243.74L543.477 244.124L543.541 266.78C543.541 267.633 543.52 268.38 543.477 269.02C543.477 269.66 543.413 270.343 543.285 271.068C543.968 271.025 544.629 271.004 545.269 271.004C545.952 270.961 546.634 270.919 547.317 270.876V273.5H534.325ZM573.816 273.5V271.58C575.139 271.58 576.056 271.26 576.568 270.62C577.08 269.937 577.379 269.02 577.464 267.868C577.549 266.673 577.592 265.308 577.592 263.772L577.656 249.18C577.656 248.497 577.656 247.815 577.656 247.132C577.699 246.449 577.784 245.745 577.912 245.02C577.144 245.063 576.376 245.105 575.608 245.148C574.883 245.191 574.136 245.233 573.368 245.276V242.588C575.245 242.588 576.653 242.503 577.592 242.332C578.573 242.161 579.299 241.948 579.768 241.692C580.237 241.436 580.621 241.159 580.92 240.86H582.776C582.819 241.159 582.84 241.5 582.84 241.884C582.883 242.268 582.925 242.695 582.968 243.164C583.011 243.633 583.032 244.167 583.032 244.764C583.971 243.953 584.995 243.228 586.104 242.588C587.256 241.948 588.451 241.436 589.688 241.052C590.968 240.668 592.227 240.476 593.464 240.476C597.176 240.476 599.885 241.649 601.592 243.996C603.299 246.3 604.152 249.905 604.152 254.812V266.716C604.152 267.569 604.131 268.337 604.088 269.02C604.088 269.66 604.024 270.343 603.896 271.068C604.579 271.025 605.24 271.004 605.88 271.004C606.563 270.961 607.245 270.919 607.928 270.876V273.5H594.872V271.58C596.195 271.58 597.112 271.26 597.624 270.62C598.136 269.937 598.435 269.02 598.52 267.868C598.605 266.673 598.648 265.308 598.648 263.772V254.812C598.605 251.143 597.987 248.369 596.792 246.492C595.64 244.615 593.805 243.697 591.288 243.74C589.752 243.783 588.237 244.188 586.744 244.956C585.293 245.724 584.077 246.705 583.096 247.9C583.139 248.241 583.16 248.625 583.16 249.052C583.16 249.479 583.16 249.927 583.16 250.396L583.096 266.716C583.096 267.569 583.075 268.337 583.032 269.02C583.032 269.66 582.968 270.343 582.84 271.068C583.523 271.025 584.184 271.004 584.824 271.004C585.507 270.961 586.189 270.919 586.872 270.876V273.5H573.816ZM628.179 274.524C625.235 274.524 622.568 273.841 620.179 272.476C617.832 271.068 615.976 269.105 614.611 266.588C613.246 264.028 612.563 261.02 612.563 257.564C612.563 254.577 613.224 251.783 614.547 249.18C615.912 246.577 617.811 244.487 620.243 242.908C622.675 241.287 625.491 240.476 628.691 240.476C630.483 240.476 632.147 240.775 633.683 241.372C635.262 241.927 636.648 242.801 637.843 243.996C639.038 245.148 639.976 246.62 640.659 248.412C641.342 250.161 641.683 252.231 641.683 254.62L619.155 255.004C619.155 258.247 619.496 261.105 620.179 263.58C620.904 266.012 622.056 267.911 623.635 269.276C625.214 270.599 627.24 271.26 629.715 271.26C631.038 271.26 632.382 271.025 633.747 270.556C635.155 270.087 636.456 269.447 637.651 268.636C638.846 267.825 639.806 266.929 640.531 265.948L642.067 267.228C640.915 269.02 639.528 270.449 637.907 271.516C636.286 272.583 634.622 273.351 632.915 273.82C631.208 274.289 629.63 274.524 628.179 274.524ZM619.347 252.316H635.667C635.667 250.78 635.432 249.308 634.963 247.9C634.536 246.449 633.811 245.276 632.787 244.38C631.763 243.441 630.419 242.972 628.755 242.972C626.28 242.972 624.211 243.719 622.547 245.212C620.926 246.663 619.859 249.031 619.347 252.316ZM660.762 274.524C658.159 274.524 655.813 273.884 653.722 272.604C651.631 271.281 649.967 269.404 648.73 266.972C647.535 264.54 646.938 261.681 646.938 258.396C646.938 254.897 647.642 251.804 649.05 249.116C650.458 246.428 652.399 244.316 654.874 242.78C657.391 241.244 660.229 240.476 663.386 240.476C664.794 240.476 666.181 240.668 667.546 241.052C668.954 241.393 670.063 241.799 670.874 242.268V233.5C670.874 232.817 670.874 232.177 670.874 231.58C670.917 230.94 670.981 230.193 671.066 229.34C670.298 229.383 669.53 229.425 668.762 229.468C668.037 229.511 667.29 229.553 666.522 229.596V226.908C668.399 226.908 669.85 226.823 670.874 226.652C671.898 226.481 672.666 226.268 673.178 226.012C673.733 225.756 674.159 225.479 674.458 225.18H676.314V266.716C676.314 267.399 676.293 268.081 676.25 268.764C676.207 269.447 676.143 270.215 676.058 271.068C676.826 271.025 677.573 270.983 678.298 270.94C679.066 270.897 679.834 270.855 680.602 270.812V273.5H671.45C671.322 272.86 671.215 272.284 671.13 271.772C671.087 271.217 671.045 270.684 671.002 270.172C669.807 271.495 668.335 272.561 666.586 273.372C664.837 274.14 662.895 274.524 660.762 274.524ZM663.066 271.388C664.474 271.388 665.882 270.983 667.29 270.172C668.741 269.361 669.935 268.359 670.874 267.164C670.831 266.652 670.81 266.119 670.81 265.564C670.81 264.967 670.81 264.327 670.81 263.644L670.874 245.212C669.85 244.444 668.719 243.889 667.482 243.548C666.287 243.164 665.05 242.972 663.77 242.972C661.637 242.972 659.781 243.591 658.202 244.828C656.623 246.065 655.429 247.793 654.618 250.012C653.807 252.231 653.445 254.833 653.53 257.82C653.615 260.423 654.021 262.748 654.746 264.796C655.514 266.844 656.581 268.465 657.946 269.66C659.354 270.812 661.061 271.388 663.066 271.388ZM715.825 274.524C713.222 274.524 710.875 273.884 708.785 272.604C706.694 271.281 705.03 269.404 703.793 266.972C702.598 264.54 702.001 261.681 702.001 258.396C702.001 254.897 702.705 251.804 704.113 249.116C705.521 246.428 707.462 244.316 709.937 242.78C712.454 241.244 715.291 240.476 718.449 240.476C719.857 240.476 721.243 240.668 722.609 241.052C724.017 241.393 725.126 241.799 725.937 242.268V233.5C725.937 232.817 725.937 232.177 725.937 231.58C725.979 230.94 726.043 230.193 726.129 229.34C725.361 229.383 724.593 229.425 723.825 229.468C723.099 229.511 722.353 229.553 721.585 229.596V226.908C723.462 226.908 724.913 226.823 725.937 226.652C726.961 226.481 727.729 226.268 728.241 226.012C728.795 225.756 729.222 225.479 729.521 225.18H731.377V266.716C731.377 267.399 731.355 268.081 731.312 268.764C731.27 269.447 731.206 270.215 731.121 271.068C731.889 271.025 732.635 270.983 733.361 270.94C734.129 270.897 734.897 270.855 735.665 270.812V273.5H726.513C726.385 272.86 726.278 272.284 726.193 271.772C726.15 271.217 726.107 270.684 726.065 270.172C724.87 271.495 723.398 272.561 721.649 273.372C719.899 274.14 717.958 274.524 715.825 274.524ZM718.128 271.388C719.537 271.388 720.945 270.983 722.353 270.172C723.803 269.361 724.998 268.359 725.937 267.164C725.894 266.652 725.873 266.119 725.873 265.564C725.873 264.967 725.873 264.327 725.873 263.644L725.937 245.212C724.913 244.444 723.782 243.889 722.545 243.548C721.35 243.164 720.113 242.972 718.833 242.972C716.699 242.972 714.843 243.591 713.265 244.828C711.686 246.065 710.491 247.793 709.681 250.012C708.87 252.231 708.507 254.833 708.593 257.82C708.678 260.423 709.083 262.748 709.809 264.796C710.577 266.844 711.643 268.465 713.009 269.66C714.417 270.812 716.123 271.388 718.128 271.388ZM740.379 271.58C741.701 271.58 742.619 271.26 743.131 270.62C743.643 269.937 743.941 269.02 744.027 267.868C744.112 266.673 744.155 265.308 744.155 263.772V249.18C744.155 248.497 744.176 247.857 744.219 247.26C744.261 246.62 744.325 245.873 744.411 245.02C743.643 245.063 742.875 245.105 742.107 245.148C741.381 245.191 740.635 245.233 739.867 245.276V242.588C741.744 242.588 743.195 242.503 744.219 242.332C745.243 242.161 746.011 241.948 746.523 241.692C747.077 241.436 747.504 241.159 747.803 240.86H749.659V266.716C749.659 267.569 749.637 268.337 749.595 269.02C749.595 269.66 749.531 270.343 749.403 271.068C750.085 271.025 750.747 271.004 751.387 271.004C752.069 270.961 752.752 270.919 753.435 270.876V273.5H740.379V271.58ZM746.587 234.524C745.691 234.524 744.901 234.161 744.219 233.436C743.536 232.711 743.195 231.815 743.195 230.748C743.195 229.681 743.536 228.785 744.219 228.06C744.944 227.292 745.755 226.908 746.651 226.908C747.632 226.908 748.443 227.292 749.083 228.06C749.765 228.785 750.107 229.681 750.107 230.748C750.107 231.815 749.744 232.711 749.019 233.436C748.336 234.161 747.525 234.524 746.587 234.524ZM773.803 290.844C769.963 290.844 766.869 290.417 764.523 289.564C762.176 288.711 760.469 287.623 759.403 286.3C758.336 284.977 757.803 283.612 757.803 282.204C757.803 280.881 758.101 279.708 758.699 278.684C759.339 277.703 760.107 276.849 761.003 276.124C761.941 275.399 762.837 274.865 763.691 274.524C762.325 274.055 761.237 273.436 760.427 272.668C759.659 271.857 759.275 270.791 759.275 269.468C759.275 267.975 759.872 266.588 761.067 265.308C762.261 263.985 763.797 263.175 765.675 262.876C763.712 261.937 762.133 260.636 760.939 258.972C759.787 257.308 759.211 255.367 759.211 253.148C759.211 250.588 759.872 248.369 761.195 246.492C762.517 244.572 764.203 243.1 766.251 242.076C768.341 241.009 770.496 240.476 772.715 240.476C774.123 240.476 775.531 240.689 776.939 241.116C778.347 241.5 779.648 242.076 780.843 242.844C781.269 241.649 781.867 240.583 782.635 239.644C783.445 238.705 784.363 237.98 785.387 237.468C786.411 236.913 787.477 236.636 788.587 236.636C789.696 236.636 790.528 236.935 791.083 237.532C791.68 238.087 791.979 238.855 791.979 239.836C791.979 240.135 791.893 240.497 791.722 240.924C791.552 241.351 791.253 241.713 790.826 242.012C790.443 242.311 789.909 242.46 789.227 242.46C788.501 242.46 787.904 242.247 787.435 241.82C786.965 241.393 786.667 240.86 786.539 240.22C785.472 240.391 784.64 240.903 784.043 241.756C783.445 242.567 783.04 243.463 782.827 244.444C783.851 245.383 784.661 246.513 785.259 247.836C785.899 249.159 786.219 250.567 786.219 252.06C786.219 254.449 785.579 256.583 784.299 258.46C783.061 260.337 781.419 261.809 779.371 262.876C777.323 263.9 775.104 264.412 772.715 264.412C771.904 264.412 771.2 264.369 770.603 264.284C770.005 264.156 769.28 264.092 768.427 264.092C766.848 264.092 765.568 264.476 764.587 265.244C763.605 266.012 763.264 266.929 763.562 267.996C763.904 269.02 764.949 269.681 766.699 269.98C768.448 270.236 770.795 270.428 773.739 270.556C777.024 270.684 779.84 271.068 782.187 271.708C784.533 272.348 786.325 273.329 787.562 274.652C788.843 276.017 789.483 277.852 789.483 280.156C789.483 281.863 789.013 283.377 788.075 284.7C787.179 286.065 785.963 287.196 784.427 288.092C782.933 288.988 781.248 289.671 779.371 290.14C777.536 290.609 775.68 290.844 773.803 290.844ZM773.739 288.348C777.408 288.348 780.267 287.665 782.315 286.3C784.363 284.935 785.387 283.335 785.387 281.5C785.387 279.921 784.853 278.705 783.787 277.852C782.72 277.041 781.269 276.465 779.435 276.124C777.6 275.825 775.488 275.655 773.099 275.612C771.947 275.569 770.816 275.505 769.707 275.42C768.597 275.377 767.531 275.271 766.507 275.1C765.355 275.868 764.459 276.807 763.819 277.916C763.179 279.025 762.859 280.199 762.859 281.436C762.859 283.527 763.84 285.191 765.803 286.428C767.808 287.708 770.453 288.348 773.739 288.348ZM772.907 262.108C774.485 262.108 775.787 261.724 776.811 260.956C777.877 260.188 778.667 259.143 779.179 257.82C779.733 256.497 780.011 255.004 780.011 253.34C780.011 251.463 779.733 249.713 779.179 248.092C778.624 246.471 777.792 245.169 776.683 244.188C775.616 243.207 774.251 242.716 772.587 242.716C770.283 242.716 768.491 243.591 767.211 245.34C765.973 247.047 765.355 249.18 765.355 251.74C765.355 253.788 765.653 255.601 766.251 257.18C766.848 258.716 767.701 259.932 768.811 260.828C769.963 261.681 771.328 262.108 772.907 262.108ZM795.316 271.58C796.639 271.58 797.556 271.26 798.068 270.62C798.58 269.937 798.879 269.02 798.964 267.868C799.049 266.673 799.092 265.308 799.092 263.772V249.18C799.092 248.497 799.113 247.857 799.156 247.26C799.199 246.62 799.263 245.873 799.348 245.02C798.58 245.063 797.812 245.105 797.044 245.148C796.319 245.191 795.572 245.233 794.804 245.276V242.588C796.681 242.588 798.132 242.503 799.156 242.332C800.18 242.161 800.948 241.948 801.46 241.692C802.015 241.436 802.441 241.159 802.74 240.86H804.596V266.716C804.596 267.569 804.575 268.337 804.532 269.02C804.532 269.66 804.468 270.343 804.34 271.068C805.023 271.025 805.684 271.004 806.324 271.004C807.007 270.961 807.689 270.919 808.372 270.876V273.5H795.316V271.58ZM801.524 234.524C800.628 234.524 799.839 234.161 799.156 233.436C798.473 232.711 798.132 231.815 798.132 230.748C798.132 229.681 798.473 228.785 799.156 228.06C799.881 227.292 800.692 226.908 801.588 226.908C802.569 226.908 803.38 227.292 804.02 228.06C804.703 228.785 805.044 229.681 805.044 230.748C805.044 231.815 804.681 232.711 803.956 233.436C803.273 234.161 802.463 234.524 801.524 234.524ZM826.348 274.524C825.367 274.524 824.364 274.375 823.34 274.076C822.316 273.82 821.356 273.287 820.46 272.476C819.607 271.665 818.924 270.492 818.412 268.956C817.9 267.377 817.644 265.308 817.644 262.748L817.772 244.188L812.844 244.252V241.5C813.953 241.457 815.084 241.052 816.236 240.284C817.388 239.473 818.412 238.385 819.308 237.02C820.247 235.655 820.887 234.161 821.228 232.54H823.404V241.5H834.156V243.996L823.404 244.124L823.276 261.916C823.276 263.836 823.425 265.479 823.724 266.844C824.065 268.167 824.599 269.169 825.324 269.852C826.049 270.535 826.988 270.876 828.14 270.876C829.335 270.876 830.444 270.535 831.468 269.852C832.535 269.169 833.473 268.231 834.284 267.036L836.012 268.444C835.073 269.852 834.135 270.961 833.196 271.772C832.3 272.583 831.425 273.18 830.572 273.564C829.719 273.991 828.929 274.247 828.204 274.332C827.479 274.46 826.86 274.524 826.348 274.524ZM858.522 273.5C858.394 272.775 858.309 272.135 858.266 271.58C858.223 271.025 858.159 270.449 858.074 269.852C856.623 271.303 855.045 272.455 853.338 273.308C851.674 274.119 849.903 274.524 848.026 274.524C844.783 274.524 842.373 273.799 840.794 272.348C839.215 270.855 838.426 269.041 838.426 266.908C838.426 264.945 839.023 263.26 840.218 261.852C841.455 260.401 843.034 259.228 844.954 258.332C846.917 257.393 849.029 256.711 851.29 256.284C853.594 255.815 855.813 255.601 857.946 255.644V251.676C857.946 250.183 857.818 248.775 857.562 247.452C857.306 246.129 856.751 245.041 855.898 244.188C855.045 243.335 853.679 242.887 851.802 242.844C850.565 242.801 849.285 243.036 847.962 243.548C846.682 244.06 845.743 244.935 845.146 246.172C845.487 246.513 845.701 246.919 845.786 247.388C845.914 247.815 845.978 248.22 845.978 248.604C845.978 249.116 845.765 249.713 845.338 250.396C844.911 251.036 844.165 251.335 843.098 251.292C842.202 251.292 841.519 250.993 841.05 250.396C840.581 249.756 840.346 249.009 840.346 248.156C840.346 246.705 840.879 245.404 841.946 244.252C843.055 243.1 844.57 242.183 846.49 241.5C848.41 240.817 850.586 240.476 853.018 240.476C856.602 240.476 859.247 241.436 860.954 243.356C862.661 245.233 863.493 248.22 863.45 252.316C863.45 253.895 863.45 255.495 863.45 257.116C863.45 258.695 863.429 260.295 863.386 261.916C863.386 263.495 863.386 265.095 863.386 266.716C863.386 267.399 863.365 268.081 863.322 268.764C863.279 269.447 863.215 270.215 863.13 271.068C863.898 271.025 864.645 270.983 865.37 270.94C866.138 270.897 866.906 270.855 867.674 270.812V273.5H858.522ZM857.946 257.82C856.495 257.863 854.959 258.055 853.338 258.396C851.759 258.695 850.287 259.164 848.922 259.804C847.599 260.444 846.511 261.297 845.658 262.364C844.847 263.388 844.463 264.647 844.506 266.14C844.591 267.719 845.103 268.913 846.042 269.724C847.023 270.492 848.175 270.876 849.498 270.876C851.247 270.876 852.762 270.556 854.042 269.916C855.365 269.233 856.666 268.295 857.946 267.1C857.903 266.631 857.882 266.119 857.882 265.564C857.882 265.009 857.882 264.433 857.882 263.836C857.882 263.623 857.882 262.94 857.882 261.788C857.925 260.636 857.946 259.313 857.946 257.82ZM871.426 271.58C872.749 271.58 873.666 271.26 874.178 270.62C874.69 269.937 874.989 269.02 875.074 267.868C875.159 266.673 875.202 265.308 875.202 263.772V233.5C875.202 232.817 875.202 232.177 875.202 231.58C875.245 230.94 875.309 230.193 875.394 229.34C874.626 229.383 873.858 229.425 873.09 229.468C872.365 229.511 871.618 229.553 870.85 229.596V226.908C872.727 226.908 874.178 226.823 875.202 226.652C876.269 226.481 877.058 226.268 877.57 226.012C878.125 225.756 878.551 225.479 878.85 225.18H880.706L880.77 266.716C880.77 267.569 880.749 268.337 880.706 269.02C880.663 269.66 880.578 270.343 880.45 271.068C881.133 271.025 881.794 271.004 882.434 271.004C883.117 270.961 883.799 270.919 884.482 270.876V273.5H871.426V271.58ZM226.304 351.524C223.36 351.524 220.693 350.841 218.304 349.476C215.957 348.068 214.101 346.105 212.736 343.588C211.371 341.028 210.688 338.02 210.688 334.564C210.688 331.577 211.349 328.783 212.672 326.18C214.037 323.577 215.936 321.487 218.368 319.908C220.8 318.287 223.616 317.476 226.816 317.476C228.608 317.476 230.272 317.775 231.808 318.372C233.387 318.927 234.773 319.801 235.968 320.996C237.163 322.148 238.101 323.62 238.784 325.412C239.467 327.161 239.808 329.231 239.808 331.62L217.28 332.004C217.28 335.247 217.621 338.105 218.304 340.58C219.029 343.012 220.181 344.911 221.76 346.276C223.339 347.599 225.365 348.26 227.84 348.26C229.163 348.26 230.507 348.025 231.872 347.556C233.28 347.087 234.581 346.447 235.776 345.636C236.971 344.825 237.931 343.929 238.656 342.948L240.192 344.228C239.04 346.02 237.653 347.449 236.032 348.516C234.411 349.583 232.747 350.351 231.04 350.82C229.333 351.289 227.755 351.524 226.304 351.524ZM217.472 329.316H233.792C233.792 327.78 233.557 326.308 233.088 324.9C232.661 323.449 231.936 322.276 230.912 321.38C229.888 320.441 228.544 319.972 226.88 319.972C224.405 319.972 222.336 320.719 220.672 322.212C219.051 323.663 217.984 326.031 217.472 329.316ZM243.911 350.5V348.58C245.234 348.239 246.279 347.684 247.047 346.916C247.815 346.105 248.796 344.932 249.991 343.396L256.391 335.076C255.794 334.265 255.068 333.305 254.215 332.196C253.362 331.044 252.551 329.956 251.783 328.932C251.058 327.865 250.482 327.076 250.055 326.564C249.031 325.199 248.284 324.068 247.815 323.172C247.346 322.276 247.004 321.551 246.791 320.996L243.783 321.124V318.5H256.967V320.42C255.047 320.463 253.959 320.911 253.703 321.764C253.49 322.575 254.172 324.068 255.751 326.244L259.463 331.3L265.287 324.26C265.927 323.492 266.46 322.852 266.887 322.34C267.314 321.785 267.74 321.295 268.167 320.868L263.751 321.124V318.5H274.247V320.42C273.095 320.761 272.114 321.209 271.303 321.764C270.492 322.276 269.682 322.98 268.871 323.876C268.103 324.729 267.143 325.86 265.991 327.268L261.063 333.156L269.895 344.1C270.364 344.74 270.834 345.359 271.303 345.956C271.772 346.553 272.242 347.257 272.711 348.068L275.591 347.876V350.5H263.239V348.58C264.263 348.58 264.988 348.345 265.415 347.876C265.884 347.364 265.671 346.553 264.775 345.444L258.055 337.124L252.679 344.484C252.039 345.337 251.548 345.977 251.207 346.404C250.866 346.831 250.375 347.385 249.735 348.068L254.663 347.876V350.5H243.911ZM278.553 366.82V364.9C279.875 364.9 280.793 364.559 281.305 363.876C281.817 363.236 282.115 362.319 282.201 361.124C282.286 359.972 282.329 358.628 282.329 357.092L282.457 326.18C282.457 325.497 282.457 324.815 282.457 324.132C282.499 323.449 282.585 322.745 282.713 322.02C281.945 322.063 281.177 322.105 280.409 322.148C279.683 322.191 278.937 322.233 278.169 322.276V319.588C280.046 319.588 281.454 319.503 282.393 319.332C283.374 319.161 284.078 318.948 284.505 318.692C284.974 318.436 285.358 318.159 285.657 317.86H287.577C287.619 318.287 287.662 318.799 287.705 319.396C287.747 319.951 287.79 320.591 287.833 321.316C289.113 320.164 290.627 319.247 292.377 318.564C294.169 317.839 295.961 317.476 297.753 317.476C300.227 317.476 302.531 318.116 304.665 319.396C306.798 320.676 308.526 322.511 309.849 324.9C311.171 327.247 311.833 330.063 311.833 333.348C311.833 336.975 311.065 340.153 309.529 342.884C308.035 345.615 306.051 347.748 303.577 349.284C301.102 350.777 298.414 351.524 295.513 351.524C294.019 351.524 292.633 351.332 291.353 350.948C290.115 350.607 288.942 350.095 287.833 349.412V360.036C287.833 360.889 287.811 361.636 287.769 362.276C287.769 362.959 287.705 363.663 287.577 364.388C288.259 364.345 288.921 364.303 289.561 364.26C290.243 364.26 290.926 364.239 291.609 364.196V366.82H278.553ZM295.385 348.964C297.433 348.964 299.182 348.345 300.633 347.108C302.126 345.828 303.257 344.1 304.025 341.924C304.835 339.705 305.241 337.188 305.241 334.372C305.241 332.068 304.899 329.871 304.217 327.78C303.577 325.647 302.531 323.919 301.081 322.596C299.673 321.273 297.795 320.612 295.449 320.612C293.998 320.612 292.59 320.975 291.225 321.7C289.902 322.383 288.793 323.215 287.897 324.196C287.897 324.367 287.897 324.623 287.897 324.964C287.939 325.263 287.961 325.817 287.961 326.628C287.961 327.396 287.961 328.569 287.961 330.148C287.961 331.684 287.939 333.775 287.897 336.42C287.897 339.065 287.897 342.415 287.897 346.468C288.963 347.279 290.115 347.897 291.353 348.324C292.633 348.751 293.977 348.964 295.385 348.964ZM332.804 351.524C329.86 351.524 327.193 350.841 324.804 349.476C322.457 348.068 320.601 346.105 319.236 343.588C317.871 341.028 317.188 338.02 317.188 334.564C317.188 331.577 317.849 328.783 319.172 326.18C320.537 323.577 322.436 321.487 324.868 319.908C327.3 318.287 330.116 317.476 333.316 317.476C335.108 317.476 336.772 317.775 338.308 318.372C339.887 318.927 341.273 319.801 342.468 320.996C343.663 322.148 344.601 323.62 345.284 325.412C345.967 327.161 346.308 329.231 346.308 331.62L323.78 332.004C323.78 335.247 324.121 338.105 324.804 340.58C325.529 343.012 326.681 344.911 328.26 346.276C329.839 347.599 331.865 348.26 334.34 348.26C335.663 348.26 337.007 348.025 338.372 347.556C339.78 347.087 341.081 346.447 342.276 345.636C343.471 344.825 344.431 343.929 345.156 342.948L346.692 344.228C345.54 346.02 344.153 347.449 342.532 348.516C340.911 349.583 339.247 350.351 337.54 350.82C335.833 351.289 334.255 351.524 332.804 351.524ZM323.972 329.316H340.292C340.292 327.78 340.057 326.308 339.588 324.9C339.161 323.449 338.436 322.276 337.412 321.38C336.388 320.441 335.044 319.972 333.38 319.972C330.905 319.972 328.836 320.719 327.172 322.212C325.551 323.663 324.484 326.031 323.972 329.316ZM352.004 348.58C353.326 348.58 354.244 348.26 354.756 347.62C355.268 346.937 355.566 346.02 355.652 344.868C355.737 343.673 355.78 342.308 355.78 340.772V326.18C355.78 325.497 355.78 324.815 355.78 324.132C355.822 323.449 355.908 322.745 356.036 322.02C355.268 322.063 354.5 322.105 353.732 322.148C353.006 322.148 352.26 322.169 351.492 322.212V319.588H353.476C355.31 319.588 356.569 319.417 357.252 319.076C357.977 318.692 358.574 318.287 359.044 317.86H360.9C360.985 318.543 361.049 319.396 361.092 320.42C361.134 321.401 361.177 322.66 361.22 324.196C361.86 323.129 362.734 322.084 363.844 321.06C364.953 320.036 366.19 319.183 367.556 318.5C368.964 317.817 370.436 317.476 371.972 317.476C373.166 317.476 374.212 317.796 375.108 318.436C376.004 319.076 376.452 320.1 376.452 321.508C376.452 321.849 376.345 322.276 376.132 322.788C375.918 323.257 375.577 323.684 375.108 324.068C374.638 324.409 374.02 324.58 373.252 324.58C372.313 324.537 371.566 324.175 371.012 323.492C370.457 322.767 370.244 321.935 370.372 320.996C369.305 320.953 368.196 321.231 367.044 321.828C365.934 322.425 364.889 323.257 363.908 324.324C362.926 325.348 362.052 326.564 361.284 327.972L361.348 343.716C361.348 344.569 361.326 345.337 361.284 346.02C361.284 346.66 361.22 347.343 361.092 348.068C361.774 348.025 362.436 348.004 363.076 348.004C363.758 347.961 364.441 347.919 365.124 347.876V350.5H352.004V348.58ZM379.691 348.58C381.014 348.58 381.931 348.26 382.443 347.62C382.955 346.937 383.254 346.02 383.339 344.868C383.424 343.673 383.467 342.308 383.467 340.772V326.18C383.467 325.497 383.488 324.857 383.531 324.26C383.574 323.62 383.638 322.873 383.723 322.02C382.955 322.063 382.187 322.105 381.419 322.148C380.694 322.191 379.947 322.233 379.179 322.276V319.588C381.056 319.588 382.507 319.503 383.531 319.332C384.555 319.161 385.323 318.948 385.835 318.692C386.39 318.436 386.816 318.159 387.115 317.86H388.971V343.716C388.971 344.569 388.95 345.337 388.907 346.02C388.907 346.66 388.843 347.343 388.715 348.068C389.398 348.025 390.059 348.004 390.699 348.004C391.382 347.961 392.064 347.919 392.747 347.876V350.5H379.691V348.58ZM385.899 311.524C385.003 311.524 384.214 311.161 383.531 310.436C382.848 309.711 382.507 308.815 382.507 307.748C382.507 306.681 382.848 305.785 383.531 305.06C384.256 304.292 385.067 303.908 385.963 303.908C386.944 303.908 387.755 304.292 388.395 305.06C389.078 305.785 389.419 306.681 389.419 307.748C389.419 308.815 389.056 309.711 388.331 310.436C387.648 311.161 386.838 311.524 385.899 311.524ZM413.179 351.524C410.235 351.524 407.568 350.841 405.179 349.476C402.832 348.068 400.976 346.105 399.611 343.588C398.246 341.028 397.563 338.02 397.563 334.564C397.563 331.577 398.224 328.783 399.547 326.18C400.912 323.577 402.811 321.487 405.243 319.908C407.675 318.287 410.491 317.476 413.691 317.476C415.483 317.476 417.147 317.775 418.683 318.372C420.262 318.927 421.648 319.801 422.843 320.996C424.038 322.148 424.976 323.62 425.659 325.412C426.342 327.161 426.683 329.231 426.683 331.62L404.155 332.004C404.155 335.247 404.496 338.105 405.179 340.58C405.904 343.012 407.056 344.911 408.635 346.276C410.214 347.599 412.24 348.26 414.715 348.26C416.038 348.26 417.382 348.025 418.747 347.556C420.155 347.087 421.456 346.447 422.651 345.636C423.846 344.825 424.806 343.929 425.531 342.948L427.067 344.228C425.915 346.02 424.528 347.449 422.907 348.516C421.286 349.583 419.622 350.351 417.915 350.82C416.208 351.289 414.63 351.524 413.179 351.524ZM404.347 329.316H420.667C420.667 327.78 420.432 326.308 419.963 324.9C419.536 323.449 418.811 322.276 417.787 321.38C416.763 320.441 415.419 319.972 413.755 319.972C411.28 319.972 409.211 320.719 407.547 322.212C405.926 323.663 404.859 326.031 404.347 329.316ZM432.379 350.5V348.58C433.701 348.58 434.619 348.26 435.131 347.62C435.643 346.937 435.941 346.02 436.027 344.868C436.112 343.673 436.155 342.308 436.155 340.772L436.219 326.18C436.219 325.497 436.219 324.815 436.219 324.132C436.261 323.449 436.347 322.745 436.475 322.02C435.707 322.063 434.939 322.105 434.171 322.148C433.445 322.191 432.699 322.233 431.931 322.276V319.588C433.808 319.588 435.216 319.503 436.155 319.332C437.136 319.161 437.861 318.948 438.331 318.692C438.8 318.436 439.184 318.159 439.483 317.86H441.339C441.381 318.159 441.403 318.5 441.403 318.884C441.445 319.268 441.488 319.695 441.531 320.164C441.573 320.633 441.595 321.167 441.595 321.764C442.533 320.953 443.557 320.228 444.667 319.588C445.819 318.948 447.013 318.436 448.251 318.052C449.531 317.668 450.789 317.476 452.027 317.476C455.739 317.476 458.448 318.649 460.155 320.996C461.861 323.3 462.715 326.905 462.715 331.812V343.716C462.715 344.569 462.693 345.337 462.651 346.02C462.651 346.66 462.587 347.343 462.458 348.068C463.141 348.025 463.803 348.004 464.443 348.004C465.125 347.961 465.808 347.919 466.491 347.876V350.5H453.435V348.58C454.757 348.58 455.675 348.26 456.187 347.62C456.699 346.937 456.997 346.02 457.083 344.868C457.168 343.673 457.211 342.308 457.211 340.772V331.812C457.168 328.143 456.549 325.369 455.355 323.492C454.203 321.615 452.368 320.697 449.851 320.74C448.315 320.783 446.8 321.188 445.307 321.956C443.856 322.724 442.64 323.705 441.659 324.9C441.701 325.241 441.723 325.625 441.723 326.052C441.723 326.479 441.723 326.927 441.723 327.396L441.659 343.716C441.659 344.569 441.637 345.337 441.595 346.02C441.595 346.66 441.531 347.343 441.403 348.068C442.085 348.025 442.747 348.004 443.387 348.004C444.069 347.961 444.752 347.919 445.435 347.876V350.5H432.379ZM486.87 351.524C484.011 351.524 481.366 350.884 478.934 349.604C476.544 348.281 474.624 346.404 473.174 343.972C471.766 341.497 471.062 338.532 471.062 335.076C471.062 332.857 471.467 330.703 472.278 328.612C473.088 326.521 474.219 324.644 475.67 322.98C477.163 321.273 478.934 319.929 480.982 318.948C483.03 317.967 485.291 317.476 487.766 317.476C490.155 317.476 492.224 317.839 493.974 318.564C495.766 319.289 497.152 320.249 498.134 321.444C499.115 322.639 499.606 323.94 499.606 325.348C499.606 326.287 499.35 327.097 498.838 327.78C498.326 328.42 497.579 328.74 496.598 328.74C495.531 328.783 494.763 328.463 494.294 327.78C493.867 327.055 493.654 326.415 493.654 325.86C493.654 325.433 493.718 325.007 493.846 324.58C493.974 324.111 494.23 323.684 494.614 323.3C494.272 322.276 493.675 321.529 492.822 321.06C491.968 320.548 491.072 320.228 490.134 320.1C489.238 319.929 488.491 319.844 487.894 319.844C484.992 319.844 482.539 321.017 480.534 323.364C478.571 325.668 477.59 329.039 477.59 333.476C477.59 336.335 478.038 338.873 478.934 341.092C479.872 343.311 481.174 345.06 482.838 346.34C484.502 347.577 486.422 348.196 488.598 348.196C490.603 348.196 492.523 347.663 494.358 346.596C496.192 345.529 497.622 344.228 498.646 342.692L500.31 343.972C499.2 345.764 497.856 347.215 496.278 348.324C494.742 349.433 493.142 350.244 491.478 350.756C489.856 351.268 488.32 351.524 486.87 351.524ZM520.492 351.524C517.548 351.524 514.881 350.841 512.492 349.476C510.145 348.068 508.289 346.105 506.924 343.588C505.558 341.028 504.876 338.02 504.876 334.564C504.876 331.577 505.537 328.783 506.86 326.18C508.225 323.577 510.124 321.487 512.556 319.908C514.988 318.287 517.804 317.476 521.003 317.476C522.796 317.476 524.46 317.775 525.996 318.372C527.574 318.927 528.961 319.801 530.156 320.996C531.35 322.148 532.289 323.62 532.972 325.412C533.654 327.161 533.996 329.231 533.996 331.62L511.468 332.004C511.468 335.247 511.809 338.105 512.492 340.58C513.217 343.012 514.369 344.911 515.948 346.276C517.526 347.599 519.553 348.26 522.028 348.26C523.35 348.26 524.694 348.025 526.06 347.556C527.468 347.087 528.769 346.447 529.964 345.636C531.158 344.825 532.118 343.929 532.844 342.948L534.38 344.228C533.228 346.02 531.841 347.449 530.22 348.516C528.598 349.583 526.934 350.351 525.228 350.82C523.521 351.289 521.942 351.524 520.492 351.524ZM511.66 329.316H527.98C527.98 327.78 527.745 326.308 527.276 324.9C526.849 323.449 526.124 322.276 525.1 321.38C524.076 320.441 522.732 319.972 521.068 319.972C518.593 319.972 516.524 320.719 514.86 322.212C513.238 323.663 512.172 326.031 511.66 329.316ZM552.811 351.524C550.678 351.524 548.779 351.225 547.115 350.628C545.451 350.073 544.086 349.433 543.019 348.708L543.275 350.948H540.587L540.203 339.94H542.187C542.272 341.689 542.763 343.268 543.659 344.676C544.555 346.041 545.707 347.108 547.115 347.876C548.523 348.644 550.038 349.028 551.659 349.028C552.768 349.028 553.856 348.857 554.923 348.516C555.99 348.132 556.886 347.577 557.611 346.852C558.336 346.084 558.699 345.124 558.699 343.972C558.699 342.777 558.336 341.796 557.611 341.028C556.928 340.217 556.011 339.513 554.859 338.916C553.707 338.319 552.47 337.764 551.147 337.252C549.867 336.74 548.587 336.207 547.307 335.652C546.027 335.097 544.832 334.436 543.723 333.668C542.656 332.9 541.803 331.961 541.163 330.852C540.523 329.743 540.203 328.377 540.203 326.756C540.203 325.86 540.374 324.879 540.715 323.812C541.056 322.745 541.632 321.743 542.443 320.804C543.254 319.823 544.363 319.033 545.771 318.436C547.179 317.796 548.971 317.476 551.147 317.476C552.299 317.476 553.579 317.668 554.987 318.052C556.395 318.436 557.76 319.161 559.083 320.228L558.955 317.796H561.643V328.996H559.595C559.51 327.503 559.168 326.073 558.571 324.708C557.974 323.3 557.099 322.148 555.947 321.252C554.795 320.313 553.302 319.844 551.467 319.844C549.504 319.844 547.968 320.335 546.859 321.316C545.75 322.297 545.195 323.428 545.195 324.708C545.195 326.031 545.6 327.14 546.411 328.036C547.264 328.889 548.352 329.636 549.675 330.276C550.998 330.916 552.406 331.535 553.899 332.132C555.52 332.815 557.099 333.561 558.635 334.372C560.171 335.183 561.43 336.207 562.411 337.444C563.392 338.639 563.883 340.196 563.883 342.116C563.883 344.249 563.328 346.02 562.219 347.428C561.152 348.836 559.766 349.86 558.059 350.5C556.395 351.183 554.646 351.524 552.811 351.524Z" fill="#EDEDEF"/>
</g>
<defs>
<filter id="filter0_f_3824_386" x="212.707" y="-278.393" width="1226.53" height="1226.53" filterUnits="userSpaceOnUse" color-interpolation-filters="sRGB">
<feFlood flood-opacity="0" result="BackgroundImageFix"/>
<feBlend mode="normal" in="SourceGraphic" in2="BackgroundImageFix" result="shape"/>
<feGaussianBlur stdDeviation="119.621" result="effect1_foregroundBlur_3824_386"/>
</filter>
<filter id="filter1_f_3824_386" x="-239.241" y="-27.1561" width="1140.76" height="926.842" filterUnits="userSpaceOnUse" color-interpolation-filters="sRGB">
<feFlood flood-opacity="0" result="BackgroundImageFix"/>
<feBlend mode="normal" in="SourceGraphic" in2="BackgroundImageFix" result="shape"/>
<feGaussianBlur stdDeviation="119.621" result="effect1_foregroundBlur_3824_386"/>
</filter>
<filter id="filter2_f_3824_386" x="-114.307" y="-468.241" width="1226.53" height="1226.53" filterUnits="userSpaceOnUse" color-interpolation-filters="sRGB">
<feFlood flood-opacity="0" result="BackgroundImageFix"/>
<feBlend mode="normal" in="SourceGraphic" in2="BackgroundImageFix" result="shape"/>
<feGaussianBlur stdDeviation="119.621" result="effect1_foregroundBlur_3824_386"/>
</filter>
<clipPath id="clip0_3824_386">
<rect width="1200" height="480" fill="white"/>
</clipPath>
</defs>
</svg>
